<?xml version="1.0" encoding="utf-8" standalone="no"?>
<!DOCTYPE svg PUBLIC "-//W3C//DTD SVG 1.1//EN"
  "http://www.w3.org/Graphics/SVG/1.1/DTD/svg11.dtd">
<svg xmlns:xlink="http://www.w3.org/1999/xlink" width="756pt" height="756pt" viewBox="0 0 756 756" xmlns="http://www.w3.org/2000/svg" version="1.1">
 <metadata>
  <rdf:RDF xmlns:dc="http://purl.org/dc/elements/1.1/" xmlns:cc="http://creativecommons.org/ns#" xmlns:rdf="http://www.w3.org/1999/02/22-rdf-syntax-ns#">
   <cc:Work>
    <dc:type rdf:resource="http://purl.org/dc/dcmitype/StillImage"/>
    <dc:date>2026-04-03T00:54:57.132900</dc:date>
    <dc:format>image/svg+xml</dc:format>
    <dc:creator>
     <cc:Agent>
      <dc:title>Matplotlib v3.10.8, https://matplotlib.org/</dc:title>
     </cc:Agent>
    </dc:creator>
   </cc:Work>
  </rdf:RDF>
 </metadata>
 <defs>
  <style type="text/css">*{stroke-linejoin: round; stroke-linecap: butt}</style>
 </defs>
 <g id="figure_1">
  <g id="patch_1">
   <path d="M 0 756 
L 756 756 
L 756 0 
L 0 0 
z
" style="fill: #ffffff"/>
  </g>
  <g id="axes_1">
   <g id="patch_2">
    <path d="M 60.5 366.654 
L 745.2 366.654 
L 745.2 36.88 
L 60.5 36.88 
z
" style="fill: #ffffff"/>
   </g>
   <g id="matplotlib.axis_1">
    <g id="xtick_1">
     <g id="line2d_1">
      <path d="M 143.493939 366.654 
L 143.493939 36.88 
" clip-path="url(#p96e03f0e68)" style="fill: none; stroke: #b0b0b0; stroke-opacity: 0.25; stroke-width: 0.8; stroke-linecap: square"/>
     </g>
     <g id="line2d_2">
      <defs>
       <path id="m38a1e59d27" d="M 0 0 
L 0 3.5 
" style="stroke: #000000; stroke-width: 0.8"/>
      </defs>
      <g>
       <use xlink:href="#m38a1e59d27" x="143.493939" y="366.654" style="stroke: #000000; stroke-width: 0.8"/>
      </g>
     </g>
    </g>
    <g id="xtick_2">
     <g id="line2d_3">
      <path d="M 247.236364 366.654 
L 247.236364 36.88 
" clip-path="url(#p96e03f0e68)" style="fill: none; stroke: #b0b0b0; stroke-opacity: 0.25; stroke-width: 0.8; stroke-linecap: square"/>
     </g>
     <g id="line2d_4">
      <g>
       <use xlink:href="#m38a1e59d27" x="247.236364" y="366.654" style="stroke: #000000; stroke-width: 0.8"/>
      </g>
     </g>
    </g>
    <g id="xtick_3">
     <g id="line2d_5">
      <path d="M 350.978788 366.654 
L 350.978788 36.88 
" clip-path="url(#p96e03f0e68)" style="fill: none; stroke: #b0b0b0; stroke-opacity: 0.25; stroke-width: 0.8; stroke-linecap: square"/>
     </g>
     <g id="line2d_6">
      <g>
       <use xlink:href="#m38a1e59d27" x="350.978788" y="366.654" style="stroke: #000000; stroke-width: 0.8"/>
      </g>
     </g>
    </g>
    <g id="xtick_4">
     <g id="line2d_7">
      <path d="M 454.721212 366.654 
L 454.721212 36.88 
" clip-path="url(#p96e03f0e68)" style="fill: none; stroke: #b0b0b0; stroke-opacity: 0.25; stroke-width: 0.8; stroke-linecap: square"/>
     </g>
     <g id="line2d_8">
      <g>
       <use xlink:href="#m38a1e59d27" x="454.721212" y="366.654" style="stroke: #000000; stroke-width: 0.8"/>
      </g>
     </g>
    </g>
    <g id="xtick_5">
     <g id="line2d_9">
      <path d="M 558.463636 366.654 
L 558.463636 36.88 
" clip-path="url(#p96e03f0e68)" style="fill: none; stroke: #b0b0b0; stroke-opacity: 0.25; stroke-width: 0.8; stroke-linecap: square"/>
     </g>
     <g id="line2d_10">
      <g>
       <use xlink:href="#m38a1e59d27" x="558.463636" y="366.654" style="stroke: #000000; stroke-width: 0.8"/>
      </g>
     </g>
    </g>
    <g id="xtick_6">
     <g id="line2d_11">
      <path d="M 662.206061 366.654 
L 662.206061 36.88 
" clip-path="url(#p96e03f0e68)" style="fill: none; stroke: #b0b0b0; stroke-opacity: 0.25; stroke-width: 0.8; stroke-linecap: square"/>
     </g>
     <g id="line2d_12">
      <g>
       <use xlink:href="#m38a1e59d27" x="662.206061" y="366.654" style="stroke: #000000; stroke-width: 0.8"/>
      </g>
     </g>
    </g>
   </g>
   <g id="matplotlib.axis_2">
    <g id="ytick_1">
     <g id="line2d_13">
      <path d="M 60.5 353.457919 
L 745.2 353.457919 
" clip-path="url(#p96e03f0e68)" style="fill: none; stroke: #b0b0b0; stroke-opacity: 0.25; stroke-width: 0.8; stroke-linecap: square"/>
     </g>
     <g id="line2d_14">
      <defs>
       <path id="m0dbc79cdf5" d="M 0 0 
L -3.5 0 
" style="stroke: #000000; stroke-width: 0.8"/>
      </defs>
      <g>
       <use xlink:href="#m0dbc79cdf5" x="60.5" y="353.457919" style="stroke: #000000; stroke-width: 0.8"/>
      </g>
     </g>
     <g id="text_1">
      <!-- 1.965 -->
      <g transform="translate(24.871875 357.257138) scale(0.1 -0.1)">
       <defs>
        <path id="DejaVuSans-31" d="M 794 531 
L 1825 531 
L 1825 4091 
L 703 3866 
L 703 4441 
L 1819 4666 
L 2450 4666 
L 2450 531 
L 3481 531 
L 3481 0 
L 794 0 
L 794 531 
z
" transform="scale(0.015625)"/>
        <path id="DejaVuSans-2e" d="M 684 794 
L 1344 794 
L 1344 0 
L 684 0 
L 684 794 
z
" transform="scale(0.015625)"/>
        <path id="DejaVuSans-39" d="M 703 97 
L 703 672 
Q 941 559 1184 500 
Q 1428 441 1663 441 
Q 2288 441 2617 861 
Q 2947 1281 2994 2138 
Q 2813 1869 2534 1725 
Q 2256 1581 1919 1581 
Q 1219 1581 811 2004 
Q 403 2428 403 3163 
Q 403 3881 828 4315 
Q 1253 4750 1959 4750 
Q 2769 4750 3195 4129 
Q 3622 3509 3622 2328 
Q 3622 1225 3098 567 
Q 2575 -91 1691 -91 
Q 1453 -91 1209 -44 
Q 966 3 703 97 
z
M 1959 2075 
Q 2384 2075 2632 2365 
Q 2881 2656 2881 3163 
Q 2881 3666 2632 3958 
Q 2384 4250 1959 4250 
Q 1534 4250 1286 3958 
Q 1038 3666 1038 3163 
Q 1038 2656 1286 2365 
Q 1534 2075 1959 2075 
z
" transform="scale(0.015625)"/>
        <path id="DejaVuSans-36" d="M 2113 2584 
Q 1688 2584 1439 2293 
Q 1191 2003 1191 1497 
Q 1191 994 1439 701 
Q 1688 409 2113 409 
Q 2538 409 2786 701 
Q 3034 994 3034 1497 
Q 3034 2003 2786 2293 
Q 2538 2584 2113 2584 
z
M 3366 4563 
L 3366 3988 
Q 3128 4100 2886 4159 
Q 2644 4219 2406 4219 
Q 1781 4219 1451 3797 
Q 1122 3375 1075 2522 
Q 1259 2794 1537 2939 
Q 1816 3084 2150 3084 
Q 2853 3084 3261 2657 
Q 3669 2231 3669 1497 
Q 3669 778 3244 343 
Q 2819 -91 2113 -91 
Q 1303 -91 875 529 
Q 447 1150 447 2328 
Q 447 3434 972 4092 
Q 1497 4750 2381 4750 
Q 2619 4750 2861 4703 
Q 3103 4656 3366 4563 
z
" transform="scale(0.015625)"/>
        <path id="DejaVuSans-35" d="M 691 4666 
L 3169 4666 
L 3169 4134 
L 1269 4134 
L 1269 2991 
Q 1406 3038 1543 3061 
Q 1681 3084 1819 3084 
Q 2600 3084 3056 2656 
Q 3513 2228 3513 1497 
Q 3513 744 3044 326 
Q 2575 -91 1722 -91 
Q 1428 -91 1123 -41 
Q 819 9 494 109 
L 494 744 
Q 775 591 1075 516 
Q 1375 441 1709 441 
Q 2250 441 2565 725 
Q 2881 1009 2881 1497 
Q 2881 1984 2565 2268 
Q 2250 2553 1709 2553 
Q 1456 2553 1204 2497 
Q 953 2441 691 2322 
L 691 4666 
z
" transform="scale(0.015625)"/>
       </defs>
       <use xlink:href="#DejaVuSans-31"/>
       <use xlink:href="#DejaVuSans-2e" transform="translate(63.623047 0)"/>
       <use xlink:href="#DejaVuSans-39" transform="translate(95.410156 0)"/>
       <use xlink:href="#DejaVuSans-36" transform="translate(159.033203 0)"/>
       <use xlink:href="#DejaVuSans-35" transform="translate(222.65625 0)"/>
      </g>
     </g>
    </g>
    <g id="ytick_2">
     <g id="line2d_15">
      <path d="M 60.5 316.588066 
L 745.2 316.588066 
" clip-path="url(#p96e03f0e68)" style="fill: none; stroke: #b0b0b0; stroke-opacity: 0.25; stroke-width: 0.8; stroke-linecap: square"/>
     </g>
     <g id="line2d_16">
      <g>
       <use xlink:href="#m0dbc79cdf5" x="60.5" y="316.588066" style="stroke: #000000; stroke-width: 0.8"/>
      </g>
     </g>
     <g id="text_2">
      <!-- 1.970 -->
      <g transform="translate(24.871875 320.387285) scale(0.1 -0.1)">
       <defs>
        <path id="DejaVuSans-37" d="M 525 4666 
L 3525 4666 
L 3525 4397 
L 1831 0 
L 1172 0 
L 2766 4134 
L 525 4134 
L 525 4666 
z
" transform="scale(0.015625)"/>
        <path id="DejaVuSans-30" d="M 2034 4250 
Q 1547 4250 1301 3770 
Q 1056 3291 1056 2328 
Q 1056 1369 1301 889 
Q 1547 409 2034 409 
Q 2525 409 2770 889 
Q 3016 1369 3016 2328 
Q 3016 3291 2770 3770 
Q 2525 4250 2034 4250 
z
M 2034 4750 
Q 2819 4750 3233 4129 
Q 3647 3509 3647 2328 
Q 3647 1150 3233 529 
Q 2819 -91 2034 -91 
Q 1250 -91 836 529 
Q 422 1150 422 2328 
Q 422 3509 836 4129 
Q 1250 4750 2034 4750 
z
" transform="scale(0.015625)"/>
       </defs>
       <use xlink:href="#DejaVuSans-31"/>
       <use xlink:href="#DejaVuSans-2e" transform="translate(63.623047 0)"/>
       <use xlink:href="#DejaVuSans-39" transform="translate(95.410156 0)"/>
       <use xlink:href="#DejaVuSans-37" transform="translate(159.033203 0)"/>
       <use xlink:href="#DejaVuSans-30" transform="translate(222.65625 0)"/>
      </g>
     </g>
    </g>
    <g id="ytick_3">
     <g id="line2d_17">
      <path d="M 60.5 279.718213 
L 745.2 279.718213 
" clip-path="url(#p96e03f0e68)" style="fill: none; stroke: #b0b0b0; stroke-opacity: 0.25; stroke-width: 0.8; stroke-linecap: square"/>
     </g>
     <g id="line2d_18">
      <g>
       <use xlink:href="#m0dbc79cdf5" x="60.5" y="279.718213" style="stroke: #000000; stroke-width: 0.8"/>
      </g>
     </g>
     <g id="text_3">
      <!-- 1.975 -->
      <g transform="translate(24.871875 283.517432) scale(0.1 -0.1)">
       <use xlink:href="#DejaVuSans-31"/>
       <use xlink:href="#DejaVuSans-2e" transform="translate(63.623047 0)"/>
       <use xlink:href="#DejaVuSans-39" transform="translate(95.410156 0)"/>
       <use xlink:href="#DejaVuSans-37" transform="translate(159.033203 0)"/>
       <use xlink:href="#DejaVuSans-35" transform="translate(222.65625 0)"/>
      </g>
     </g>
    </g>
    <g id="ytick_4">
     <g id="line2d_19">
      <path d="M 60.5 242.848361 
L 745.2 242.848361 
" clip-path="url(#p96e03f0e68)" style="fill: none; stroke: #b0b0b0; stroke-opacity: 0.25; stroke-width: 0.8; stroke-linecap: square"/>
     </g>
     <g id="line2d_20">
      <g>
       <use xlink:href="#m0dbc79cdf5" x="60.5" y="242.848361" style="stroke: #000000; stroke-width: 0.8"/>
      </g>
     </g>
     <g id="text_4">
      <!-- 1.980 -->
      <g transform="translate(24.871875 246.647579) scale(0.1 -0.1)">
       <defs>
        <path id="DejaVuSans-38" d="M 2034 2216 
Q 1584 2216 1326 1975 
Q 1069 1734 1069 1313 
Q 1069 891 1326 650 
Q 1584 409 2034 409 
Q 2484 409 2743 651 
Q 3003 894 3003 1313 
Q 3003 1734 2745 1975 
Q 2488 2216 2034 2216 
z
M 1403 2484 
Q 997 2584 770 2862 
Q 544 3141 544 3541 
Q 544 4100 942 4425 
Q 1341 4750 2034 4750 
Q 2731 4750 3128 4425 
Q 3525 4100 3525 3541 
Q 3525 3141 3298 2862 
Q 3072 2584 2669 2484 
Q 3125 2378 3379 2068 
Q 3634 1759 3634 1313 
Q 3634 634 3220 271 
Q 2806 -91 2034 -91 
Q 1263 -91 848 271 
Q 434 634 434 1313 
Q 434 1759 690 2068 
Q 947 2378 1403 2484 
z
M 1172 3481 
Q 1172 3119 1398 2916 
Q 1625 2713 2034 2713 
Q 2441 2713 2670 2916 
Q 2900 3119 2900 3481 
Q 2900 3844 2670 4047 
Q 2441 4250 2034 4250 
Q 1625 4250 1398 4047 
Q 1172 3844 1172 3481 
z
" transform="scale(0.015625)"/>
       </defs>
       <use xlink:href="#DejaVuSans-31"/>
       <use xlink:href="#DejaVuSans-2e" transform="translate(63.623047 0)"/>
       <use xlink:href="#DejaVuSans-39" transform="translate(95.410156 0)"/>
       <use xlink:href="#DejaVuSans-38" transform="translate(159.033203 0)"/>
       <use xlink:href="#DejaVuSans-30" transform="translate(222.65625 0)"/>
      </g>
     </g>
    </g>
    <g id="ytick_5">
     <g id="line2d_21">
      <path d="M 60.5 205.978508 
L 745.2 205.978508 
" clip-path="url(#p96e03f0e68)" style="fill: none; stroke: #b0b0b0; stroke-opacity: 0.25; stroke-width: 0.8; stroke-linecap: square"/>
     </g>
     <g id="line2d_22">
      <g>
       <use xlink:href="#m0dbc79cdf5" x="60.5" y="205.978508" style="stroke: #000000; stroke-width: 0.8"/>
      </g>
     </g>
     <g id="text_5">
      <!-- 1.985 -->
      <g transform="translate(24.871875 209.777727) scale(0.1 -0.1)">
       <use xlink:href="#DejaVuSans-31"/>
       <use xlink:href="#DejaVuSans-2e" transform="translate(63.623047 0)"/>
       <use xlink:href="#DejaVuSans-39" transform="translate(95.410156 0)"/>
       <use xlink:href="#DejaVuSans-38" transform="translate(159.033203 0)"/>
       <use xlink:href="#DejaVuSans-35" transform="translate(222.65625 0)"/>
      </g>
     </g>
    </g>
    <g id="ytick_6">
     <g id="line2d_23">
      <path d="M 60.5 169.108655 
L 745.2 169.108655 
" clip-path="url(#p96e03f0e68)" style="fill: none; stroke: #b0b0b0; stroke-opacity: 0.25; stroke-width: 0.8; stroke-linecap: square"/>
     </g>
     <g id="line2d_24">
      <g>
       <use xlink:href="#m0dbc79cdf5" x="60.5" y="169.108655" style="stroke: #000000; stroke-width: 0.8"/>
      </g>
     </g>
     <g id="text_6">
      <!-- 1.990 -->
      <g transform="translate(24.871875 172.907874) scale(0.1 -0.1)">
       <use xlink:href="#DejaVuSans-31"/>
       <use xlink:href="#DejaVuSans-2e" transform="translate(63.623047 0)"/>
       <use xlink:href="#DejaVuSans-39" transform="translate(95.410156 0)"/>
       <use xlink:href="#DejaVuSans-39" transform="translate(159.033203 0)"/>
       <use xlink:href="#DejaVuSans-30" transform="translate(222.65625 0)"/>
      </g>
     </g>
    </g>
    <g id="ytick_7">
     <g id="line2d_25">
      <path d="M 60.5 132.238802 
L 745.2 132.238802 
" clip-path="url(#p96e03f0e68)" style="fill: none; stroke: #b0b0b0; stroke-opacity: 0.25; stroke-width: 0.8; stroke-linecap: square"/>
     </g>
     <g id="line2d_26">
      <g>
       <use xlink:href="#m0dbc79cdf5" x="60.5" y="132.238802" style="stroke: #000000; stroke-width: 0.8"/>
      </g>
     </g>
     <g id="text_7">
      <!-- 1.995 -->
      <g transform="translate(24.871875 136.038021) scale(0.1 -0.1)">
       <use xlink:href="#DejaVuSans-31"/>
       <use xlink:href="#DejaVuSans-2e" transform="translate(63.623047 0)"/>
       <use xlink:href="#DejaVuSans-39" transform="translate(95.410156 0)"/>
       <use xlink:href="#DejaVuSans-39" transform="translate(159.033203 0)"/>
       <use xlink:href="#DejaVuSans-35" transform="translate(222.65625 0)"/>
      </g>
     </g>
    </g>
    <g id="ytick_8">
     <g id="line2d_27">
      <path d="M 60.5 95.368949 
L 745.2 95.368949 
" clip-path="url(#p96e03f0e68)" style="fill: none; stroke: #b0b0b0; stroke-opacity: 0.25; stroke-width: 0.8; stroke-linecap: square"/>
     </g>
     <g id="line2d_28">
      <g>
       <use xlink:href="#m0dbc79cdf5" x="60.5" y="95.368949" style="stroke: #000000; stroke-width: 0.8"/>
      </g>
     </g>
     <g id="text_8">
      <!-- 2.000 -->
      <g transform="translate(24.871875 99.168168) scale(0.1 -0.1)">
       <defs>
        <path id="DejaVuSans-32" d="M 1228 531 
L 3431 531 
L 3431 0 
L 469 0 
L 469 531 
Q 828 903 1448 1529 
Q 2069 2156 2228 2338 
Q 2531 2678 2651 2914 
Q 2772 3150 2772 3378 
Q 2772 3750 2511 3984 
Q 2250 4219 1831 4219 
Q 1534 4219 1204 4116 
Q 875 4013 500 3803 
L 500 4441 
Q 881 4594 1212 4672 
Q 1544 4750 1819 4750 
Q 2544 4750 2975 4387 
Q 3406 4025 3406 3419 
Q 3406 3131 3298 2873 
Q 3191 2616 2906 2266 
Q 2828 2175 2409 1742 
Q 1991 1309 1228 531 
z
" transform="scale(0.015625)"/>
       </defs>
       <use xlink:href="#DejaVuSans-32"/>
       <use xlink:href="#DejaVuSans-2e" transform="translate(63.623047 0)"/>
       <use xlink:href="#DejaVuSans-30" transform="translate(95.410156 0)"/>
       <use xlink:href="#DejaVuSans-30" transform="translate(159.033203 0)"/>
       <use xlink:href="#DejaVuSans-30" transform="translate(222.65625 0)"/>
      </g>
     </g>
    </g>
    <g id="ytick_9">
     <g id="line2d_29">
      <path d="M 60.5 58.499097 
L 745.2 58.499097 
" clip-path="url(#p96e03f0e68)" style="fill: none; stroke: #b0b0b0; stroke-opacity: 0.25; stroke-width: 0.8; stroke-linecap: square"/>
     </g>
     <g id="line2d_30">
      <g>
       <use xlink:href="#m0dbc79cdf5" x="60.5" y="58.499097" style="stroke: #000000; stroke-width: 0.8"/>
      </g>
     </g>
     <g id="text_9">
      <!-- 2.005 -->
      <g transform="translate(24.871875 62.298315) scale(0.1 -0.1)">
       <use xlink:href="#DejaVuSans-32"/>
       <use xlink:href="#DejaVuSans-2e" transform="translate(63.623047 0)"/>
       <use xlink:href="#DejaVuSans-30" transform="translate(95.410156 0)"/>
       <use xlink:href="#DejaVuSans-30" transform="translate(159.033203 0)"/>
       <use xlink:href="#DejaVuSans-35" transform="translate(222.65625 0)"/>
      </g>
     </g>
    </g>
    <g id="text_10">
     <!-- Edge-distance-2 enrichment -->
     <g transform="translate(18.792188 272.599813) rotate(-90) scale(0.1 -0.1)">
      <defs>
       <path id="DejaVuSans-45" d="M 628 4666 
L 3578 4666 
L 3578 4134 
L 1259 4134 
L 1259 2753 
L 3481 2753 
L 3481 2222 
L 1259 2222 
L 1259 531 
L 3634 531 
L 3634 0 
L 628 0 
L 628 4666 
z
" transform="scale(0.015625)"/>
       <path id="DejaVuSans-64" d="M 2906 2969 
L 2906 4863 
L 3481 4863 
L 3481 0 
L 2906 0 
L 2906 525 
Q 2725 213 2448 61 
Q 2172 -91 1784 -91 
Q 1150 -91 751 415 
Q 353 922 353 1747 
Q 353 2572 751 3078 
Q 1150 3584 1784 3584 
Q 2172 3584 2448 3432 
Q 2725 3281 2906 2969 
z
M 947 1747 
Q 947 1113 1208 752 
Q 1469 391 1925 391 
Q 2381 391 2643 752 
Q 2906 1113 2906 1747 
Q 2906 2381 2643 2742 
Q 2381 3103 1925 3103 
Q 1469 3103 1208 2742 
Q 947 2381 947 1747 
z
" transform="scale(0.015625)"/>
       <path id="DejaVuSans-67" d="M 2906 1791 
Q 2906 2416 2648 2759 
Q 2391 3103 1925 3103 
Q 1463 3103 1205 2759 
Q 947 2416 947 1791 
Q 947 1169 1205 825 
Q 1463 481 1925 481 
Q 2391 481 2648 825 
Q 2906 1169 2906 1791 
z
M 3481 434 
Q 3481 -459 3084 -895 
Q 2688 -1331 1869 -1331 
Q 1566 -1331 1297 -1286 
Q 1028 -1241 775 -1147 
L 775 -588 
Q 1028 -725 1275 -790 
Q 1522 -856 1778 -856 
Q 2344 -856 2625 -561 
Q 2906 -266 2906 331 
L 2906 616 
Q 2728 306 2450 153 
Q 2172 0 1784 0 
Q 1141 0 747 490 
Q 353 981 353 1791 
Q 353 2603 747 3093 
Q 1141 3584 1784 3584 
Q 2172 3584 2450 3431 
Q 2728 3278 2906 2969 
L 2906 3500 
L 3481 3500 
L 3481 434 
z
" transform="scale(0.015625)"/>
       <path id="DejaVuSans-65" d="M 3597 1894 
L 3597 1613 
L 953 1613 
Q 991 1019 1311 708 
Q 1631 397 2203 397 
Q 2534 397 2845 478 
Q 3156 559 3463 722 
L 3463 178 
Q 3153 47 2828 -22 
Q 2503 -91 2169 -91 
Q 1331 -91 842 396 
Q 353 884 353 1716 
Q 353 2575 817 3079 
Q 1281 3584 2069 3584 
Q 2775 3584 3186 3129 
Q 3597 2675 3597 1894 
z
M 3022 2063 
Q 3016 2534 2758 2815 
Q 2500 3097 2075 3097 
Q 1594 3097 1305 2825 
Q 1016 2553 972 2059 
L 3022 2063 
z
" transform="scale(0.015625)"/>
       <path id="DejaVuSans-2d" d="M 313 2009 
L 1997 2009 
L 1997 1497 
L 313 1497 
L 313 2009 
z
" transform="scale(0.015625)"/>
       <path id="DejaVuSans-69" d="M 603 3500 
L 1178 3500 
L 1178 0 
L 603 0 
L 603 3500 
z
M 603 4863 
L 1178 4863 
L 1178 4134 
L 603 4134 
L 603 4863 
z
" transform="scale(0.015625)"/>
       <path id="DejaVuSans-73" d="M 2834 3397 
L 2834 2853 
Q 2591 2978 2328 3040 
Q 2066 3103 1784 3103 
Q 1356 3103 1142 2972 
Q 928 2841 928 2578 
Q 928 2378 1081 2264 
Q 1234 2150 1697 2047 
L 1894 2003 
Q 2506 1872 2764 1633 
Q 3022 1394 3022 966 
Q 3022 478 2636 193 
Q 2250 -91 1575 -91 
Q 1294 -91 989 -36 
Q 684 19 347 128 
L 347 722 
Q 666 556 975 473 
Q 1284 391 1588 391 
Q 1994 391 2212 530 
Q 2431 669 2431 922 
Q 2431 1156 2273 1281 
Q 2116 1406 1581 1522 
L 1381 1569 
Q 847 1681 609 1914 
Q 372 2147 372 2553 
Q 372 3047 722 3315 
Q 1072 3584 1716 3584 
Q 2034 3584 2315 3537 
Q 2597 3491 2834 3397 
z
" transform="scale(0.015625)"/>
       <path id="DejaVuSans-74" d="M 1172 4494 
L 1172 3500 
L 2356 3500 
L 2356 3053 
L 1172 3053 
L 1172 1153 
Q 1172 725 1289 603 
Q 1406 481 1766 481 
L 2356 481 
L 2356 0 
L 1766 0 
Q 1100 0 847 248 
Q 594 497 594 1153 
L 594 3053 
L 172 3053 
L 172 3500 
L 594 3500 
L 594 4494 
L 1172 4494 
z
" transform="scale(0.015625)"/>
       <path id="DejaVuSans-61" d="M 2194 1759 
Q 1497 1759 1228 1600 
Q 959 1441 959 1056 
Q 959 750 1161 570 
Q 1363 391 1709 391 
Q 2188 391 2477 730 
Q 2766 1069 2766 1631 
L 2766 1759 
L 2194 1759 
z
M 3341 1997 
L 3341 0 
L 2766 0 
L 2766 531 
Q 2569 213 2275 61 
Q 1981 -91 1556 -91 
Q 1019 -91 701 211 
Q 384 513 384 1019 
Q 384 1609 779 1909 
Q 1175 2209 1959 2209 
L 2766 2209 
L 2766 2266 
Q 2766 2663 2505 2880 
Q 2244 3097 1772 3097 
Q 1472 3097 1187 3025 
Q 903 2953 641 2809 
L 641 3341 
Q 956 3463 1253 3523 
Q 1550 3584 1831 3584 
Q 2591 3584 2966 3190 
Q 3341 2797 3341 1997 
z
" transform="scale(0.015625)"/>
       <path id="DejaVuSans-6e" d="M 3513 2113 
L 3513 0 
L 2938 0 
L 2938 2094 
Q 2938 2591 2744 2837 
Q 2550 3084 2163 3084 
Q 1697 3084 1428 2787 
Q 1159 2491 1159 1978 
L 1159 0 
L 581 0 
L 581 3500 
L 1159 3500 
L 1159 2956 
Q 1366 3272 1645 3428 
Q 1925 3584 2291 3584 
Q 2894 3584 3203 3211 
Q 3513 2838 3513 2113 
z
" transform="scale(0.015625)"/>
       <path id="DejaVuSans-63" d="M 3122 3366 
L 3122 2828 
Q 2878 2963 2633 3030 
Q 2388 3097 2138 3097 
Q 1578 3097 1268 2742 
Q 959 2388 959 1747 
Q 959 1106 1268 751 
Q 1578 397 2138 397 
Q 2388 397 2633 464 
Q 2878 531 3122 666 
L 3122 134 
Q 2881 22 2623 -34 
Q 2366 -91 2075 -91 
Q 1284 -91 818 406 
Q 353 903 353 1747 
Q 353 2603 823 3093 
Q 1294 3584 2113 3584 
Q 2378 3584 2631 3529 
Q 2884 3475 3122 3366 
z
" transform="scale(0.015625)"/>
       <path id="DejaVuSans-20" transform="scale(0.015625)"/>
       <path id="DejaVuSans-72" d="M 2631 2963 
Q 2534 3019 2420 3045 
Q 2306 3072 2169 3072 
Q 1681 3072 1420 2755 
Q 1159 2438 1159 1844 
L 1159 0 
L 581 0 
L 581 3500 
L 1159 3500 
L 1159 2956 
Q 1341 3275 1631 3429 
Q 1922 3584 2338 3584 
Q 2397 3584 2469 3576 
Q 2541 3569 2628 3553 
L 2631 2963 
z
" transform="scale(0.015625)"/>
       <path id="DejaVuSans-68" d="M 3513 2113 
L 3513 0 
L 2938 0 
L 2938 2094 
Q 2938 2591 2744 2837 
Q 2550 3084 2163 3084 
Q 1697 3084 1428 2787 
Q 1159 2491 1159 1978 
L 1159 0 
L 581 0 
L 581 4863 
L 1159 4863 
L 1159 2956 
Q 1366 3272 1645 3428 
Q 1925 3584 2291 3584 
Q 2894 3584 3203 3211 
Q 3513 2838 3513 2113 
z
" transform="scale(0.015625)"/>
       <path id="DejaVuSans-6d" d="M 3328 2828 
Q 3544 3216 3844 3400 
Q 4144 3584 4550 3584 
Q 5097 3584 5394 3201 
Q 5691 2819 5691 2113 
L 5691 0 
L 5113 0 
L 5113 2094 
Q 5113 2597 4934 2840 
Q 4756 3084 4391 3084 
Q 3944 3084 3684 2787 
Q 3425 2491 3425 1978 
L 3425 0 
L 2847 0 
L 2847 2094 
Q 2847 2600 2669 2842 
Q 2491 3084 2119 3084 
Q 1678 3084 1418 2786 
Q 1159 2488 1159 1978 
L 1159 0 
L 581 0 
L 581 3500 
L 1159 3500 
L 1159 2956 
Q 1356 3278 1631 3431 
Q 1906 3584 2284 3584 
Q 2666 3584 2933 3390 
Q 3200 3197 3328 2828 
z
" transform="scale(0.015625)"/>
      </defs>
      <use xlink:href="#DejaVuSans-45"/>
      <use xlink:href="#DejaVuSans-64" transform="translate(63.183594 0)"/>
      <use xlink:href="#DejaVuSans-67" transform="translate(126.660156 0)"/>
      <use xlink:href="#DejaVuSans-65" transform="translate(190.136719 0)"/>
      <use xlink:href="#DejaVuSans-2d" transform="translate(251.660156 0)"/>
      <use xlink:href="#DejaVuSans-64" transform="translate(287.744141 0)"/>
      <use xlink:href="#DejaVuSans-69" transform="translate(351.220703 0)"/>
      <use xlink:href="#DejaVuSans-73" transform="translate(379.003906 0)"/>
      <use xlink:href="#DejaVuSans-74" transform="translate(431.103516 0)"/>
      <use xlink:href="#DejaVuSans-61" transform="translate(470.3125 0)"/>
      <use xlink:href="#DejaVuSans-6e" transform="translate(531.591797 0)"/>
      <use xlink:href="#DejaVuSans-63" transform="translate(594.970703 0)"/>
      <use xlink:href="#DejaVuSans-65" transform="translate(649.951172 0)"/>
      <use xlink:href="#DejaVuSans-2d" transform="translate(711.474609 0)"/>
      <use xlink:href="#DejaVuSans-32" transform="translate(747.558594 0)"/>
      <use xlink:href="#DejaVuSans-20" transform="translate(811.181641 0)"/>
      <use xlink:href="#DejaVuSans-65" transform="translate(842.96875 0)"/>
      <use xlink:href="#DejaVuSans-6e" transform="translate(904.492188 0)"/>
      <use xlink:href="#DejaVuSans-72" transform="translate(967.871094 0)"/>
      <use xlink:href="#DejaVuSans-69" transform="translate(1008.984375 0)"/>
      <use xlink:href="#DejaVuSans-63" transform="translate(1036.767578 0)"/>
      <use xlink:href="#DejaVuSans-68" transform="translate(1091.748047 0)"/>
      <use xlink:href="#DejaVuSans-6d" transform="translate(1155.126953 0)"/>
      <use xlink:href="#DejaVuSans-65" transform="translate(1252.539062 0)"/>
      <use xlink:href="#DejaVuSans-6e" transform="translate(1314.0625 0)"/>
      <use xlink:href="#DejaVuSans-74" transform="translate(1377.441406 0)"/>
     </g>
    </g>
   </g>
   <g id="line2d_31">
    <path d="M 91.622727 351.664273 
L 143.493939 266.244269 
" clip-path="url(#p96e03f0e68)" style="fill: none; stroke: #1f4e79; stroke-width: 2.5; stroke-linecap: square"/>
    <defs>
     <path id="mbbd1da2f14" d="M 0 3.5 
C 0.928211 3.5 1.81853 3.131218 2.474874 2.474874 
C 3.131218 1.81853 3.5 0.928211 3.5 0 
C 3.5 -0.928211 3.131218 -1.81853 2.474874 -2.474874 
C 1.81853 -3.131218 0.928211 -3.5 0 -3.5 
C -0.928211 -3.5 -1.81853 -3.131218 -2.474874 -2.474874 
C -3.131218 -1.81853 -3.5 -0.928211 -3.5 0 
C -3.5 0.928211 -3.131218 1.81853 -2.474874 2.474874 
C -1.81853 3.131218 -0.928211 3.5 0 3.5 
z
" style="stroke: #1f4e79"/>
    </defs>
    <g clip-path="url(#p96e03f0e68)">
     <use xlink:href="#mbbd1da2f14" x="91.622727" y="351.664273" style="fill: #1f4e79; stroke: #1f4e79"/>
     <use xlink:href="#mbbd1da2f14" x="143.493939" y="266.244269" style="fill: #1f4e79; stroke: #1f4e79"/>
    </g>
   </g>
   <g id="line2d_32">
    <path d="M 195.365152 194.830602 
L 247.236364 172.081755 
L 299.107576 142.208969 
L 350.978788 142.500374 
L 402.85 147.86792 
L 454.721212 125.165559 
L 506.592424 124.175439 
L 558.463636 150.642953 
L 610.334848 136.799979 
L 662.206061 133.420955 
L 714.077273 145.109577 
" clip-path="url(#p96e03f0e68)" style="fill: none; stroke: #0f8b8d; stroke-width: 2.5; stroke-linecap: square"/>
    <defs>
     <path id="m25c5538d37" d="M 0 3.5 
C 0.928211 3.5 1.81853 3.131218 2.474874 2.474874 
C 3.131218 1.81853 3.5 0.928211 3.5 0 
C 3.5 -0.928211 3.131218 -1.81853 2.474874 -2.474874 
C 1.81853 -3.131218 0.928211 -3.5 0 -3.5 
C -0.928211 -3.5 -1.81853 -3.131218 -2.474874 -2.474874 
C -3.131218 -1.81853 -3.5 -0.928211 -3.5 0 
C -3.5 0.928211 -3.131218 1.81853 -2.474874 2.474874 
C -1.81853 3.131218 -0.928211 3.5 0 3.5 
z
" style="stroke: #0f8b8d"/>
    </defs>
    <g clip-path="url(#p96e03f0e68)">
     <use xlink:href="#m25c5538d37" x="195.365152" y="194.830602" style="fill: #0f8b8d; stroke: #0f8b8d"/>
     <use xlink:href="#m25c5538d37" x="247.236364" y="172.081755" style="fill: #0f8b8d; stroke: #0f8b8d"/>
     <use xlink:href="#m25c5538d37" x="299.107576" y="142.208969" style="fill: #0f8b8d; stroke: #0f8b8d"/>
     <use xlink:href="#m25c5538d37" x="350.978788" y="142.500374" style="fill: #0f8b8d; stroke: #0f8b8d"/>
     <use xlink:href="#m25c5538d37" x="402.85" y="147.86792" style="fill: #0f8b8d; stroke: #0f8b8d"/>
     <use xlink:href="#m25c5538d37" x="454.721212" y="125.165559" style="fill: #0f8b8d; stroke: #0f8b8d"/>
     <use xlink:href="#m25c5538d37" x="506.592424" y="124.175439" style="fill: #0f8b8d; stroke: #0f8b8d"/>
     <use xlink:href="#m25c5538d37" x="558.463636" y="150.642953" style="fill: #0f8b8d; stroke: #0f8b8d"/>
     <use xlink:href="#m25c5538d37" x="610.334848" y="136.799979" style="fill: #0f8b8d; stroke: #0f8b8d"/>
     <use xlink:href="#m25c5538d37" x="662.206061" y="133.420955" style="fill: #0f8b8d; stroke: #0f8b8d"/>
     <use xlink:href="#m25c5538d37" x="714.077273" y="145.109577" style="fill: #0f8b8d; stroke: #0f8b8d"/>
    </g>
   </g>
   <g id="line2d_33">
    <path d="M 195.365152 207.457793 
L 247.236364 149.06528 
L 299.107576 135.223999 
L 350.978788 124.785564 
L 402.85 105.217503 
L 454.721212 89.138543 
L 506.592424 94.001262 
L 558.463636 84.82806 
L 610.334848 89.582522 
L 662.206061 100.042865 
L 714.077273 51.869727 
" clip-path="url(#p96e03f0e68)" style="fill: none; stroke: #c05621; stroke-width: 2.5; stroke-linecap: square"/>
    <defs>
     <path id="me9920dacf5" d="M 0 3.5 
C 0.928211 3.5 1.81853 3.131218 2.474874 2.474874 
C 3.131218 1.81853 3.5 0.928211 3.5 0 
C 3.5 -0.928211 3.131218 -1.81853 2.474874 -2.474874 
C 1.81853 -3.131218 0.928211 -3.5 0 -3.5 
C -0.928211 -3.5 -1.81853 -3.131218 -2.474874 -2.474874 
C -3.131218 -1.81853 -3.5 -0.928211 -3.5 0 
C -3.5 0.928211 -3.131218 1.81853 -2.474874 2.474874 
C -1.81853 3.131218 -0.928211 3.5 0 3.5 
z
" style="stroke: #c05621"/>
    </defs>
    <g clip-path="url(#p96e03f0e68)">
     <use xlink:href="#me9920dacf5" x="195.365152" y="207.457793" style="fill: #c05621; stroke: #c05621"/>
     <use xlink:href="#me9920dacf5" x="247.236364" y="149.06528" style="fill: #c05621; stroke: #c05621"/>
     <use xlink:href="#me9920dacf5" x="299.107576" y="135.223999" style="fill: #c05621; stroke: #c05621"/>
     <use xlink:href="#me9920dacf5" x="350.978788" y="124.785564" style="fill: #c05621; stroke: #c05621"/>
     <use xlink:href="#me9920dacf5" x="402.85" y="105.217503" style="fill: #c05621; stroke: #c05621"/>
     <use xlink:href="#me9920dacf5" x="454.721212" y="89.138543" style="fill: #c05621; stroke: #c05621"/>
     <use xlink:href="#me9920dacf5" x="506.592424" y="94.001262" style="fill: #c05621; stroke: #c05621"/>
     <use xlink:href="#me9920dacf5" x="558.463636" y="84.82806" style="fill: #c05621; stroke: #c05621"/>
     <use xlink:href="#me9920dacf5" x="610.334848" y="89.582522" style="fill: #c05621; stroke: #c05621"/>
     <use xlink:href="#me9920dacf5" x="662.206061" y="100.042865" style="fill: #c05621; stroke: #c05621"/>
     <use xlink:href="#me9920dacf5" x="714.077273" y="51.869727" style="fill: #c05621; stroke: #c05621"/>
    </g>
   </g>
   <g id="patch_3">
    <path d="M 60.5 366.654 
L 60.5 36.88 
" style="fill: none; stroke: #000000; stroke-width: 0.8; stroke-linejoin: miter; stroke-linecap: square"/>
   </g>
   <g id="patch_4">
    <path d="M 745.2 366.654 
L 745.2 36.88 
" style="fill: none; stroke: #000000; stroke-width: 0.8; stroke-linejoin: miter; stroke-linecap: square"/>
   </g>
   <g id="patch_5">
    <path d="M 60.5 366.654 
L 745.2 366.654 
" style="fill: none; stroke: #000000; stroke-width: 0.8; stroke-linejoin: miter; stroke-linecap: square"/>
   </g>
   <g id="patch_6">
    <path d="M 60.5 36.88 
L 745.2 36.88 
" style="fill: none; stroke: #000000; stroke-width: 0.8; stroke-linejoin: miter; stroke-linecap: square"/>
   </g>
   <g id="text_11">
    <!-- Near-edge and d(n)=4 ridge enrichment across tested scales -->
    <g transform="translate(219.264063 20.88) scale(0.12 -0.12)">
     <defs>
      <path id="DejaVuSans-4e" d="M 628 4666 
L 1478 4666 
L 3547 763 
L 3547 4666 
L 4159 4666 
L 4159 0 
L 3309 0 
L 1241 3903 
L 1241 0 
L 628 0 
L 628 4666 
z
" transform="scale(0.015625)"/>
      <path id="DejaVuSans-28" d="M 1984 4856 
Q 1566 4138 1362 3434 
Q 1159 2731 1159 2009 
Q 1159 1288 1364 580 
Q 1569 -128 1984 -844 
L 1484 -844 
Q 1016 -109 783 600 
Q 550 1309 550 2009 
Q 550 2706 781 3412 
Q 1013 4119 1484 4856 
L 1984 4856 
z
" transform="scale(0.015625)"/>
      <path id="DejaVuSans-29" d="M 513 4856 
L 1013 4856 
Q 1481 4119 1714 3412 
Q 1947 2706 1947 2009 
Q 1947 1309 1714 600 
Q 1481 -109 1013 -844 
L 513 -844 
Q 928 -128 1133 580 
Q 1338 1288 1338 2009 
Q 1338 2731 1133 3434 
Q 928 4138 513 4856 
z
" transform="scale(0.015625)"/>
      <path id="DejaVuSans-3d" d="M 678 2906 
L 4684 2906 
L 4684 2381 
L 678 2381 
L 678 2906 
z
M 678 1631 
L 4684 1631 
L 4684 1100 
L 678 1100 
L 678 1631 
z
" transform="scale(0.015625)"/>
      <path id="DejaVuSans-34" d="M 2419 4116 
L 825 1625 
L 2419 1625 
L 2419 4116 
z
M 2253 4666 
L 3047 4666 
L 3047 1625 
L 3713 1625 
L 3713 1100 
L 3047 1100 
L 3047 0 
L 2419 0 
L 2419 1100 
L 313 1100 
L 313 1709 
L 2253 4666 
z
" transform="scale(0.015625)"/>
      <path id="DejaVuSans-6f" d="M 1959 3097 
Q 1497 3097 1228 2736 
Q 959 2375 959 1747 
Q 959 1119 1226 758 
Q 1494 397 1959 397 
Q 2419 397 2687 759 
Q 2956 1122 2956 1747 
Q 2956 2369 2687 2733 
Q 2419 3097 1959 3097 
z
M 1959 3584 
Q 2709 3584 3137 3096 
Q 3566 2609 3566 1747 
Q 3566 888 3137 398 
Q 2709 -91 1959 -91 
Q 1206 -91 779 398 
Q 353 888 353 1747 
Q 353 2609 779 3096 
Q 1206 3584 1959 3584 
z
" transform="scale(0.015625)"/>
      <path id="DejaVuSans-6c" d="M 603 4863 
L 1178 4863 
L 1178 0 
L 603 0 
L 603 4863 
z
" transform="scale(0.015625)"/>
     </defs>
     <use xlink:href="#DejaVuSans-4e"/>
     <use xlink:href="#DejaVuSans-65" transform="translate(74.804688 0)"/>
     <use xlink:href="#DejaVuSans-61" transform="translate(136.328125 0)"/>
     <use xlink:href="#DejaVuSans-72" transform="translate(197.607422 0)"/>
     <use xlink:href="#DejaVuSans-2d" transform="translate(232.345703 0)"/>
     <use xlink:href="#DejaVuSans-65" transform="translate(268.429688 0)"/>
     <use xlink:href="#DejaVuSans-64" transform="translate(329.953125 0)"/>
     <use xlink:href="#DejaVuSans-67" transform="translate(393.429688 0)"/>
     <use xlink:href="#DejaVuSans-65" transform="translate(456.90625 0)"/>
     <use xlink:href="#DejaVuSans-20" transform="translate(518.429688 0)"/>
     <use xlink:href="#DejaVuSans-61" transform="translate(550.216797 0)"/>
     <use xlink:href="#DejaVuSans-6e" transform="translate(611.496094 0)"/>
     <use xlink:href="#DejaVuSans-64" transform="translate(674.875 0)"/>
     <use xlink:href="#DejaVuSans-20" transform="translate(738.351562 0)"/>
     <use xlink:href="#DejaVuSans-64" transform="translate(770.138672 0)"/>
     <use xlink:href="#DejaVuSans-28" transform="translate(833.615234 0)"/>
     <use xlink:href="#DejaVuSans-6e" transform="translate(872.628906 0)"/>
     <use xlink:href="#DejaVuSans-29" transform="translate(936.007812 0)"/>
     <use xlink:href="#DejaVuSans-3d" transform="translate(975.021484 0)"/>
     <use xlink:href="#DejaVuSans-34" transform="translate(1058.810547 0)"/>
     <use xlink:href="#DejaVuSans-20" transform="translate(1122.433594 0)"/>
     <use xlink:href="#DejaVuSans-72" transform="translate(1154.220703 0)"/>
     <use xlink:href="#DejaVuSans-69" transform="translate(1195.333984 0)"/>
     <use xlink:href="#DejaVuSans-64" transform="translate(1223.117188 0)"/>
     <use xlink:href="#DejaVuSans-67" transform="translate(1286.59375 0)"/>
     <use xlink:href="#DejaVuSans-65" transform="translate(1350.070312 0)"/>
     <use xlink:href="#DejaVuSans-20" transform="translate(1411.59375 0)"/>
     <use xlink:href="#DejaVuSans-65" transform="translate(1443.380859 0)"/>
     <use xlink:href="#DejaVuSans-6e" transform="translate(1504.904297 0)"/>
     <use xlink:href="#DejaVuSans-72" transform="translate(1568.283203 0)"/>
     <use xlink:href="#DejaVuSans-69" transform="translate(1609.396484 0)"/>
     <use xlink:href="#DejaVuSans-63" transform="translate(1637.179688 0)"/>
     <use xlink:href="#DejaVuSans-68" transform="translate(1692.160156 0)"/>
     <use xlink:href="#DejaVuSans-6d" transform="translate(1755.539062 0)"/>
     <use xlink:href="#DejaVuSans-65" transform="translate(1852.951172 0)"/>
     <use xlink:href="#DejaVuSans-6e" transform="translate(1914.474609 0)"/>
     <use xlink:href="#DejaVuSans-74" transform="translate(1977.853516 0)"/>
     <use xlink:href="#DejaVuSans-20" transform="translate(2017.0625 0)"/>
     <use xlink:href="#DejaVuSans-61" transform="translate(2048.849609 0)"/>
     <use xlink:href="#DejaVuSans-63" transform="translate(2110.128906 0)"/>
     <use xlink:href="#DejaVuSans-72" transform="translate(2165.109375 0)"/>
     <use xlink:href="#DejaVuSans-6f" transform="translate(2203.972656 0)"/>
     <use xlink:href="#DejaVuSans-73" transform="translate(2265.154297 0)"/>
     <use xlink:href="#DejaVuSans-73" transform="translate(2317.253906 0)"/>
     <use xlink:href="#DejaVuSans-20" transform="translate(2369.353516 0)"/>
     <use xlink:href="#DejaVuSans-74" transform="translate(2401.140625 0)"/>
     <use xlink:href="#DejaVuSans-65" transform="translate(2440.349609 0)"/>
     <use xlink:href="#DejaVuSans-73" transform="translate(2501.873047 0)"/>
     <use xlink:href="#DejaVuSans-74" transform="translate(2553.972656 0)"/>
     <use xlink:href="#DejaVuSans-65" transform="translate(2593.181641 0)"/>
     <use xlink:href="#DejaVuSans-64" transform="translate(2654.705078 0)"/>
     <use xlink:href="#DejaVuSans-20" transform="translate(2718.181641 0)"/>
     <use xlink:href="#DejaVuSans-73" transform="translate(2749.96875 0)"/>
     <use xlink:href="#DejaVuSans-63" transform="translate(2802.068359 0)"/>
     <use xlink:href="#DejaVuSans-61" transform="translate(2857.048828 0)"/>
     <use xlink:href="#DejaVuSans-6c" transform="translate(2918.328125 0)"/>
     <use xlink:href="#DejaVuSans-65" transform="translate(2946.111328 0)"/>
     <use xlink:href="#DejaVuSans-73" transform="translate(3007.634766 0)"/>
    </g>
   </g>
   <g id="legend_1">
    <g id="line2d_34">
     <path d="M 69.5 49.978438 
L 79.5 49.978438 
L 89.5 49.978438 
" style="fill: none; stroke: #1f4e79; stroke-width: 2.5; stroke-linecap: square"/>
     <g>
      <use xlink:href="#mbbd1da2f14" x="79.5" y="49.978438" style="fill: #1f4e79; stroke: #1f4e79"/>
     </g>
    </g>
    <g id="text_12">
     <!-- Exact full runs -->
     <g transform="translate(97.5 53.478438) scale(0.1 -0.1)">
      <defs>
       <path id="DejaVuSans-78" d="M 3513 3500 
L 2247 1797 
L 3578 0 
L 2900 0 
L 1881 1375 
L 863 0 
L 184 0 
L 1544 1831 
L 300 3500 
L 978 3500 
L 1906 2253 
L 2834 3500 
L 3513 3500 
z
" transform="scale(0.015625)"/>
       <path id="DejaVuSans-66" d="M 2375 4863 
L 2375 4384 
L 1825 4384 
Q 1516 4384 1395 4259 
Q 1275 4134 1275 3809 
L 1275 3500 
L 2222 3500 
L 2222 3053 
L 1275 3053 
L 1275 0 
L 697 0 
L 697 3053 
L 147 3053 
L 147 3500 
L 697 3500 
L 697 3744 
Q 697 4328 969 4595 
Q 1241 4863 1831 4863 
L 2375 4863 
z
" transform="scale(0.015625)"/>
       <path id="DejaVuSans-75" d="M 544 1381 
L 544 3500 
L 1119 3500 
L 1119 1403 
Q 1119 906 1312 657 
Q 1506 409 1894 409 
Q 2359 409 2629 706 
Q 2900 1003 2900 1516 
L 2900 3500 
L 3475 3500 
L 3475 0 
L 2900 0 
L 2900 538 
Q 2691 219 2414 64 
Q 2138 -91 1772 -91 
Q 1169 -91 856 284 
Q 544 659 544 1381 
z
M 1991 3584 
L 1991 3584 
z
" transform="scale(0.015625)"/>
      </defs>
      <use xlink:href="#DejaVuSans-45"/>
      <use xlink:href="#DejaVuSans-78" transform="translate(63.183594 0)"/>
      <use xlink:href="#DejaVuSans-61" transform="translate(122.363281 0)"/>
      <use xlink:href="#DejaVuSans-63" transform="translate(183.642578 0)"/>
      <use xlink:href="#DejaVuSans-74" transform="translate(238.623047 0)"/>
      <use xlink:href="#DejaVuSans-20" transform="translate(277.832031 0)"/>
      <use xlink:href="#DejaVuSans-66" transform="translate(309.619141 0)"/>
      <use xlink:href="#DejaVuSans-75" transform="translate(344.824219 0)"/>
      <use xlink:href="#DejaVuSans-6c" transform="translate(408.203125 0)"/>
      <use xlink:href="#DejaVuSans-6c" transform="translate(435.986328 0)"/>
      <use xlink:href="#DejaVuSans-20" transform="translate(463.769531 0)"/>
      <use xlink:href="#DejaVuSans-72" transform="translate(495.556641 0)"/>
      <use xlink:href="#DejaVuSans-75" transform="translate(536.669922 0)"/>
      <use xlink:href="#DejaVuSans-6e" transform="translate(600.048828 0)"/>
      <use xlink:href="#DejaVuSans-73" transform="translate(663.427734 0)"/>
     </g>
    </g>
    <g id="line2d_35">
     <path d="M 69.5 64.656563 
L 79.5 64.656563 
L 89.5 64.656563 
" style="fill: none; stroke: #0f8b8d; stroke-width: 2.5; stroke-linecap: square"/>
     <g>
      <use xlink:href="#m25c5538d37" x="79.5" y="64.656563" style="fill: #0f8b8d; stroke: #0f8b8d"/>
     </g>
    </g>
    <g id="text_13">
     <!-- Even windows -->
     <g transform="translate(97.5 68.156563) scale(0.1 -0.1)">
      <defs>
       <path id="DejaVuSans-76" d="M 191 3500 
L 800 3500 
L 1894 563 
L 2988 3500 
L 3597 3500 
L 2284 0 
L 1503 0 
L 191 3500 
z
" transform="scale(0.015625)"/>
       <path id="DejaVuSans-77" d="M 269 3500 
L 844 3500 
L 1563 769 
L 2278 3500 
L 2956 3500 
L 3675 769 
L 4391 3500 
L 4966 3500 
L 4050 0 
L 3372 0 
L 2619 2869 
L 1863 0 
L 1184 0 
L 269 3500 
z
" transform="scale(0.015625)"/>
      </defs>
      <use xlink:href="#DejaVuSans-45"/>
      <use xlink:href="#DejaVuSans-76" transform="translate(63.183594 0)"/>
      <use xlink:href="#DejaVuSans-65" transform="translate(122.363281 0)"/>
      <use xlink:href="#DejaVuSans-6e" transform="translate(183.886719 0)"/>
      <use xlink:href="#DejaVuSans-20" transform="translate(247.265625 0)"/>
      <use xlink:href="#DejaVuSans-77" transform="translate(279.052734 0)"/>
      <use xlink:href="#DejaVuSans-69" transform="translate(360.839844 0)"/>
      <use xlink:href="#DejaVuSans-6e" transform="translate(388.623047 0)"/>
      <use xlink:href="#DejaVuSans-64" transform="translate(452.001953 0)"/>
      <use xlink:href="#DejaVuSans-6f" transform="translate(515.478516 0)"/>
      <use xlink:href="#DejaVuSans-77" transform="translate(576.660156 0)"/>
      <use xlink:href="#DejaVuSans-73" transform="translate(658.447266 0)"/>
     </g>
    </g>
    <g id="line2d_36">
     <path d="M 69.5 79.334688 
L 79.5 79.334688 
L 89.5 79.334688 
" style="fill: none; stroke: #c05621; stroke-width: 2.5; stroke-linecap: square"/>
     <g>
      <use xlink:href="#me9920dacf5" x="79.5" y="79.334688" style="fill: #c05621; stroke: #c05621"/>
     </g>
    </g>
    <g id="text_14">
     <!-- Seeded windows -->
     <g transform="translate(97.5 82.834688) scale(0.1 -0.1)">
      <defs>
       <path id="DejaVuSans-53" d="M 3425 4513 
L 3425 3897 
Q 3066 4069 2747 4153 
Q 2428 4238 2131 4238 
Q 1616 4238 1336 4038 
Q 1056 3838 1056 3469 
Q 1056 3159 1242 3001 
Q 1428 2844 1947 2747 
L 2328 2669 
Q 3034 2534 3370 2195 
Q 3706 1856 3706 1288 
Q 3706 609 3251 259 
Q 2797 -91 1919 -91 
Q 1588 -91 1214 -16 
Q 841 59 441 206 
L 441 856 
Q 825 641 1194 531 
Q 1563 422 1919 422 
Q 2459 422 2753 634 
Q 3047 847 3047 1241 
Q 3047 1584 2836 1778 
Q 2625 1972 2144 2069 
L 1759 2144 
Q 1053 2284 737 2584 
Q 422 2884 422 3419 
Q 422 4038 858 4394 
Q 1294 4750 2059 4750 
Q 2388 4750 2728 4690 
Q 3069 4631 3425 4513 
z
" transform="scale(0.015625)"/>
      </defs>
      <use xlink:href="#DejaVuSans-53"/>
      <use xlink:href="#DejaVuSans-65" transform="translate(63.476562 0)"/>
      <use xlink:href="#DejaVuSans-65" transform="translate(125 0)"/>
      <use xlink:href="#DejaVuSans-64" transform="translate(186.523438 0)"/>
      <use xlink:href="#DejaVuSans-65" transform="translate(250 0)"/>
      <use xlink:href="#DejaVuSans-64" transform="translate(311.523438 0)"/>
      <use xlink:href="#DejaVuSans-20" transform="translate(375 0)"/>
      <use xlink:href="#DejaVuSans-77" transform="translate(406.787109 0)"/>
      <use xlink:href="#DejaVuSans-69" transform="translate(488.574219 0)"/>
      <use xlink:href="#DejaVuSans-6e" transform="translate(516.357422 0)"/>
      <use xlink:href="#DejaVuSans-64" transform="translate(579.736328 0)"/>
      <use xlink:href="#DejaVuSans-6f" transform="translate(643.212891 0)"/>
      <use xlink:href="#DejaVuSans-77" transform="translate(704.394531 0)"/>
      <use xlink:href="#DejaVuSans-73" transform="translate(786.181641 0)"/>
     </g>
    </g>
   </g>
  </g>
  <g id="axes_2">
   <g id="patch_7">
    <path d="M 60.5 710.728 
L 745.2 710.728 
L 745.2 380.954 
L 60.5 380.954 
z
" style="fill: #ffffff"/>
   </g>
   <g id="matplotlib.axis_3">
    <g id="xtick_7">
     <g id="line2d_37">
      <path d="M 143.493939 710.728 
L 143.493939 380.954 
" clip-path="url(#p03befc568e)" style="fill: none; stroke: #b0b0b0; stroke-opacity: 0.25; stroke-width: 0.8; stroke-linecap: square"/>
     </g>
     <g id="line2d_38">
      <g>
       <use xlink:href="#m38a1e59d27" x="143.493939" y="710.728" style="stroke: #000000; stroke-width: 0.8"/>
      </g>
     </g>
     <g id="text_15">
      <!-- $10^{7}$ -->
      <g transform="translate(134.693939 725.326437) scale(0.1 -0.1)">
       <use xlink:href="#DejaVuSans-31" transform="translate(0 0.684375)"/>
       <use xlink:href="#DejaVuSans-30" transform="translate(63.623047 0.684375)"/>
       <use xlink:href="#DejaVuSans-37" transform="translate(128.203125 38.965625) scale(0.7)"/>
      </g>
     </g>
    </g>
    <g id="xtick_8">
     <g id="line2d_39">
      <path d="M 247.236364 710.728 
L 247.236364 380.954 
" clip-path="url(#p03befc568e)" style="fill: none; stroke: #b0b0b0; stroke-opacity: 0.25; stroke-width: 0.8; stroke-linecap: square"/>
     </g>
     <g id="line2d_40">
      <g>
       <use xlink:href="#m38a1e59d27" x="247.236364" y="710.728" style="stroke: #000000; stroke-width: 0.8"/>
      </g>
     </g>
     <g id="text_16">
      <!-- $10^{9}$ -->
      <g transform="translate(238.436364 725.326437) scale(0.1 -0.1)">
       <use xlink:href="#DejaVuSans-31" transform="translate(0 0.765625)"/>
       <use xlink:href="#DejaVuSans-30" transform="translate(63.623047 0.765625)"/>
       <use xlink:href="#DejaVuSans-39" transform="translate(128.203125 39.046875) scale(0.7)"/>
      </g>
     </g>
    </g>
    <g id="xtick_9">
     <g id="line2d_41">
      <path d="M 350.978788 710.728 
L 350.978788 380.954 
" clip-path="url(#p03befc568e)" style="fill: none; stroke: #b0b0b0; stroke-opacity: 0.25; stroke-width: 0.8; stroke-linecap: square"/>
     </g>
     <g id="line2d_42">
      <g>
       <use xlink:href="#m38a1e59d27" x="350.978788" y="710.728" style="stroke: #000000; stroke-width: 0.8"/>
      </g>
     </g>
     <g id="text_17">
      <!-- $10^{11}$ -->
      <g transform="translate(339.928788 725.326437) scale(0.1 -0.1)">
       <use xlink:href="#DejaVuSans-31" transform="translate(0 0.684375)"/>
       <use xlink:href="#DejaVuSans-30" transform="translate(63.623047 0.684375)"/>
       <use xlink:href="#DejaVuSans-31" transform="translate(128.203125 38.965625) scale(0.7)"/>
       <use xlink:href="#DejaVuSans-31" transform="translate(172.739258 38.965625) scale(0.7)"/>
      </g>
     </g>
    </g>
    <g id="xtick_10">
     <g id="line2d_43">
      <path d="M 454.721212 710.728 
L 454.721212 380.954 
" clip-path="url(#p03befc568e)" style="fill: none; stroke: #b0b0b0; stroke-opacity: 0.25; stroke-width: 0.8; stroke-linecap: square"/>
     </g>
     <g id="line2d_44">
      <g>
       <use xlink:href="#m38a1e59d27" x="454.721212" y="710.728" style="stroke: #000000; stroke-width: 0.8"/>
      </g>
     </g>
     <g id="text_18">
      <!-- $10^{13}$ -->
      <g transform="translate(443.671212 725.326437) scale(0.1 -0.1)">
       <defs>
        <path id="DejaVuSans-33" d="M 2597 2516 
Q 3050 2419 3304 2112 
Q 3559 1806 3559 1356 
Q 3559 666 3084 287 
Q 2609 -91 1734 -91 
Q 1441 -91 1130 -33 
Q 819 25 488 141 
L 488 750 
Q 750 597 1062 519 
Q 1375 441 1716 441 
Q 2309 441 2620 675 
Q 2931 909 2931 1356 
Q 2931 1769 2642 2001 
Q 2353 2234 1838 2234 
L 1294 2234 
L 1294 2753 
L 1863 2753 
Q 2328 2753 2575 2939 
Q 2822 3125 2822 3475 
Q 2822 3834 2567 4026 
Q 2313 4219 1838 4219 
Q 1578 4219 1281 4162 
Q 984 4106 628 3988 
L 628 4550 
Q 988 4650 1302 4700 
Q 1616 4750 1894 4750 
Q 2613 4750 3031 4423 
Q 3450 4097 3450 3541 
Q 3450 3153 3228 2886 
Q 3006 2619 2597 2516 
z
" transform="scale(0.015625)"/>
       </defs>
       <use xlink:href="#DejaVuSans-31" transform="translate(0 0.765625)"/>
       <use xlink:href="#DejaVuSans-30" transform="translate(63.623047 0.765625)"/>
       <use xlink:href="#DejaVuSans-31" transform="translate(128.203125 39.046875) scale(0.7)"/>
       <use xlink:href="#DejaVuSans-33" transform="translate(172.739258 39.046875) scale(0.7)"/>
      </g>
     </g>
    </g>
    <g id="xtick_11">
     <g id="line2d_45">
      <path d="M 558.463636 710.728 
L 558.463636 380.954 
" clip-path="url(#p03befc568e)" style="fill: none; stroke: #b0b0b0; stroke-opacity: 0.25; stroke-width: 0.8; stroke-linecap: square"/>
     </g>
     <g id="line2d_46">
      <g>
       <use xlink:href="#m38a1e59d27" x="558.463636" y="710.728" style="stroke: #000000; stroke-width: 0.8"/>
      </g>
     </g>
     <g id="text_19">
      <!-- $10^{15}$ -->
      <g transform="translate(547.413636 725.326437) scale(0.1 -0.1)">
       <use xlink:href="#DejaVuSans-31" transform="translate(0 0.684375)"/>
       <use xlink:href="#DejaVuSans-30" transform="translate(63.623047 0.684375)"/>
       <use xlink:href="#DejaVuSans-31" transform="translate(128.203125 38.965625) scale(0.7)"/>
       <use xlink:href="#DejaVuSans-35" transform="translate(172.739258 38.965625) scale(0.7)"/>
      </g>
     </g>
    </g>
    <g id="xtick_12">
     <g id="line2d_47">
      <path d="M 662.206061 710.728 
L 662.206061 380.954 
" clip-path="url(#p03befc568e)" style="fill: none; stroke: #b0b0b0; stroke-opacity: 0.25; stroke-width: 0.8; stroke-linecap: square"/>
     </g>
     <g id="line2d_48">
      <g>
       <use xlink:href="#m38a1e59d27" x="662.206061" y="710.728" style="stroke: #000000; stroke-width: 0.8"/>
      </g>
     </g>
     <g id="text_20">
      <!-- $10^{17}$ -->
      <g transform="translate(651.156061 725.326437) scale(0.1 -0.1)">
       <use xlink:href="#DejaVuSans-31" transform="translate(0 0.684375)"/>
       <use xlink:href="#DejaVuSans-30" transform="translate(63.623047 0.684375)"/>
       <use xlink:href="#DejaVuSans-31" transform="translate(128.203125 38.965625) scale(0.7)"/>
       <use xlink:href="#DejaVuSans-37" transform="translate(172.739258 38.965625) scale(0.7)"/>
      </g>
     </g>
    </g>
    <g id="text_21">
     <!-- Natural-number scale -->
     <g transform="translate(348.617188 739.004563) scale(0.1 -0.1)">
      <defs>
       <path id="DejaVuSans-62" d="M 3116 1747 
Q 3116 2381 2855 2742 
Q 2594 3103 2138 3103 
Q 1681 3103 1420 2742 
Q 1159 2381 1159 1747 
Q 1159 1113 1420 752 
Q 1681 391 2138 391 
Q 2594 391 2855 752 
Q 3116 1113 3116 1747 
z
M 1159 2969 
Q 1341 3281 1617 3432 
Q 1894 3584 2278 3584 
Q 2916 3584 3314 3078 
Q 3713 2572 3713 1747 
Q 3713 922 3314 415 
Q 2916 -91 2278 -91 
Q 1894 -91 1617 61 
Q 1341 213 1159 525 
L 1159 0 
L 581 0 
L 581 4863 
L 1159 4863 
L 1159 2969 
z
" transform="scale(0.015625)"/>
      </defs>
      <use xlink:href="#DejaVuSans-4e"/>
      <use xlink:href="#DejaVuSans-61" transform="translate(74.804688 0)"/>
      <use xlink:href="#DejaVuSans-74" transform="translate(136.083984 0)"/>
      <use xlink:href="#DejaVuSans-75" transform="translate(175.292969 0)"/>
      <use xlink:href="#DejaVuSans-72" transform="translate(238.671875 0)"/>
      <use xlink:href="#DejaVuSans-61" transform="translate(279.785156 0)"/>
      <use xlink:href="#DejaVuSans-6c" transform="translate(341.064453 0)"/>
      <use xlink:href="#DejaVuSans-2d" transform="translate(368.847656 0)"/>
      <use xlink:href="#DejaVuSans-6e" transform="translate(404.931641 0)"/>
      <use xlink:href="#DejaVuSans-75" transform="translate(468.310547 0)"/>
      <use xlink:href="#DejaVuSans-6d" transform="translate(531.689453 0)"/>
      <use xlink:href="#DejaVuSans-62" transform="translate(629.101562 0)"/>
      <use xlink:href="#DejaVuSans-65" transform="translate(692.578125 0)"/>
      <use xlink:href="#DejaVuSans-72" transform="translate(754.101562 0)"/>
      <use xlink:href="#DejaVuSans-20" transform="translate(795.214844 0)"/>
      <use xlink:href="#DejaVuSans-73" transform="translate(827.001953 0)"/>
      <use xlink:href="#DejaVuSans-63" transform="translate(879.101562 0)"/>
      <use xlink:href="#DejaVuSans-61" transform="translate(934.082031 0)"/>
      <use xlink:href="#DejaVuSans-6c" transform="translate(995.361328 0)"/>
      <use xlink:href="#DejaVuSans-65" transform="translate(1023.144531 0)"/>
     </g>
    </g>
   </g>
   <g id="matplotlib.axis_4">
    <g id="ytick_10">
     <g id="line2d_49">
      <path d="M 60.5 702.606535 
L 745.2 702.606535 
" clip-path="url(#p03befc568e)" style="fill: none; stroke: #b0b0b0; stroke-opacity: 0.25; stroke-width: 0.8; stroke-linecap: square"/>
     </g>
     <g id="line2d_50">
      <g>
       <use xlink:href="#m0dbc79cdf5" x="60.5" y="702.606535" style="stroke: #000000; stroke-width: 0.8"/>
      </g>
     </g>
     <g id="text_22">
      <!-- 4 -->
      <g transform="translate(47.1375 706.405753) scale(0.1 -0.1)">
       <use xlink:href="#DejaVuSans-34"/>
      </g>
     </g>
    </g>
    <g id="ytick_11">
     <g id="line2d_51">
      <path d="M 60.5 643.554627 
L 745.2 643.554627 
" clip-path="url(#p03befc568e)" style="fill: none; stroke: #b0b0b0; stroke-opacity: 0.25; stroke-width: 0.8; stroke-linecap: square"/>
     </g>
     <g id="line2d_52">
      <g>
       <use xlink:href="#m0dbc79cdf5" x="60.5" y="643.554627" style="stroke: #000000; stroke-width: 0.8"/>
      </g>
     </g>
     <g id="text_23">
      <!-- 5 -->
      <g transform="translate(47.1375 647.353846) scale(0.1 -0.1)">
       <use xlink:href="#DejaVuSans-35"/>
      </g>
     </g>
    </g>
    <g id="ytick_12">
     <g id="line2d_53">
      <path d="M 60.5 584.50272 
L 745.2 584.50272 
" clip-path="url(#p03befc568e)" style="fill: none; stroke: #b0b0b0; stroke-opacity: 0.25; stroke-width: 0.8; stroke-linecap: square"/>
     </g>
     <g id="line2d_54">
      <g>
       <use xlink:href="#m0dbc79cdf5" x="60.5" y="584.50272" style="stroke: #000000; stroke-width: 0.8"/>
      </g>
     </g>
     <g id="text_24">
      <!-- 6 -->
      <g transform="translate(47.1375 588.301939) scale(0.1 -0.1)">
       <use xlink:href="#DejaVuSans-36"/>
      </g>
     </g>
    </g>
    <g id="ytick_13">
     <g id="line2d_55">
      <path d="M 60.5 525.450812 
L 745.2 525.450812 
" clip-path="url(#p03befc568e)" style="fill: none; stroke: #b0b0b0; stroke-opacity: 0.25; stroke-width: 0.8; stroke-linecap: square"/>
     </g>
     <g id="line2d_56">
      <g>
       <use xlink:href="#m0dbc79cdf5" x="60.5" y="525.450812" style="stroke: #000000; stroke-width: 0.8"/>
      </g>
     </g>
     <g id="text_25">
      <!-- 7 -->
      <g transform="translate(47.1375 529.250031) scale(0.1 -0.1)">
       <use xlink:href="#DejaVuSans-37"/>
      </g>
     </g>
    </g>
    <g id="ytick_14">
     <g id="line2d_57">
      <path d="M 60.5 466.398905 
L 745.2 466.398905 
" clip-path="url(#p03befc568e)" style="fill: none; stroke: #b0b0b0; stroke-opacity: 0.25; stroke-width: 0.8; stroke-linecap: square"/>
     </g>
     <g id="line2d_58">
      <g>
       <use xlink:href="#m0dbc79cdf5" x="60.5" y="466.398905" style="stroke: #000000; stroke-width: 0.8"/>
      </g>
     </g>
     <g id="text_26">
      <!-- 8 -->
      <g transform="translate(47.1375 470.198124) scale(0.1 -0.1)">
       <use xlink:href="#DejaVuSans-38"/>
      </g>
     </g>
    </g>
    <g id="ytick_15">
     <g id="line2d_59">
      <path d="M 60.5 407.346998 
L 745.2 407.346998 
" clip-path="url(#p03befc568e)" style="fill: none; stroke: #b0b0b0; stroke-opacity: 0.25; stroke-width: 0.8; stroke-linecap: square"/>
     </g>
     <g id="line2d_60">
      <g>
       <use xlink:href="#m0dbc79cdf5" x="60.5" y="407.346998" style="stroke: #000000; stroke-width: 0.8"/>
      </g>
     </g>
     <g id="text_27">
      <!-- 9 -->
      <g transform="translate(47.1375 411.146216) scale(0.1 -0.1)">
       <use xlink:href="#DejaVuSans-39"/>
      </g>
     </g>
    </g>
    <g id="text_28">
     <!-- d(n)=4 carrier enrichment -->
     <g transform="translate(41.057813 611.676156) rotate(-90) scale(0.1 -0.1)">
      <use xlink:href="#DejaVuSans-64"/>
      <use xlink:href="#DejaVuSans-28" transform="translate(63.476562 0)"/>
      <use xlink:href="#DejaVuSans-6e" transform="translate(102.490234 0)"/>
      <use xlink:href="#DejaVuSans-29" transform="translate(165.869141 0)"/>
      <use xlink:href="#DejaVuSans-3d" transform="translate(204.882812 0)"/>
      <use xlink:href="#DejaVuSans-34" transform="translate(288.671875 0)"/>
      <use xlink:href="#DejaVuSans-20" transform="translate(352.294922 0)"/>
      <use xlink:href="#DejaVuSans-63" transform="translate(384.082031 0)"/>
      <use xlink:href="#DejaVuSans-61" transform="translate(439.0625 0)"/>
      <use xlink:href="#DejaVuSans-72" transform="translate(500.341797 0)"/>
      <use xlink:href="#DejaVuSans-72" transform="translate(539.705078 0)"/>
      <use xlink:href="#DejaVuSans-69" transform="translate(580.818359 0)"/>
      <use xlink:href="#DejaVuSans-65" transform="translate(608.601562 0)"/>
      <use xlink:href="#DejaVuSans-72" transform="translate(670.125 0)"/>
      <use xlink:href="#DejaVuSans-20" transform="translate(711.238281 0)"/>
      <use xlink:href="#DejaVuSans-65" transform="translate(743.025391 0)"/>
      <use xlink:href="#DejaVuSans-6e" transform="translate(804.548828 0)"/>
      <use xlink:href="#DejaVuSans-72" transform="translate(867.927734 0)"/>
      <use xlink:href="#DejaVuSans-69" transform="translate(909.041016 0)"/>
      <use xlink:href="#DejaVuSans-63" transform="translate(936.824219 0)"/>
      <use xlink:href="#DejaVuSans-68" transform="translate(991.804688 0)"/>
      <use xlink:href="#DejaVuSans-6d" transform="translate(1055.183594 0)"/>
      <use xlink:href="#DejaVuSans-65" transform="translate(1152.595703 0)"/>
      <use xlink:href="#DejaVuSans-6e" transform="translate(1214.119141 0)"/>
      <use xlink:href="#DejaVuSans-74" transform="translate(1277.498047 0)"/>
     </g>
    </g>
   </g>
   <g id="line2d_61">
    <path d="M 91.622727 695.738273 
L 143.493939 667.420519 
" clip-path="url(#p03befc568e)" style="fill: none; stroke: #1f4e79; stroke-width: 2.5; stroke-linecap: square"/>
    <g clip-path="url(#p03befc568e)">
     <use xlink:href="#mbbd1da2f14" x="91.622727" y="695.738273" style="fill: #1f4e79; stroke: #1f4e79"/>
     <use xlink:href="#mbbd1da2f14" x="143.493939" y="667.420519" style="fill: #1f4e79; stroke: #1f4e79"/>
    </g>
   </g>
   <g id="line2d_62">
    <path d="M 195.365152 640.209607 
L 247.236364 618.790984 
L 299.107576 598.770683 
L 350.978788 580.58216 
L 402.85 563.711743 
L 454.721212 548.678026 
L 506.592424 534.899001 
L 558.463636 522.393852 
L 610.334848 511.178246 
L 662.206061 501.288496 
L 714.077273 492.198619 
" clip-path="url(#p03befc568e)" style="fill: none; stroke: #0f8b8d; stroke-width: 2.5; stroke-linecap: square"/>
    <g clip-path="url(#p03befc568e)">
     <use xlink:href="#m25c5538d37" x="195.365152" y="640.209607" style="fill: #0f8b8d; stroke: #0f8b8d"/>
     <use xlink:href="#m25c5538d37" x="247.236364" y="618.790984" style="fill: #0f8b8d; stroke: #0f8b8d"/>
     <use xlink:href="#m25c5538d37" x="299.107576" y="598.770683" style="fill: #0f8b8d; stroke: #0f8b8d"/>
     <use xlink:href="#m25c5538d37" x="350.978788" y="580.58216" style="fill: #0f8b8d; stroke: #0f8b8d"/>
     <use xlink:href="#m25c5538d37" x="402.85" y="563.711743" style="fill: #0f8b8d; stroke: #0f8b8d"/>
     <use xlink:href="#m25c5538d37" x="454.721212" y="548.678026" style="fill: #0f8b8d; stroke: #0f8b8d"/>
     <use xlink:href="#m25c5538d37" x="506.592424" y="534.899001" style="fill: #0f8b8d; stroke: #0f8b8d"/>
     <use xlink:href="#m25c5538d37" x="558.463636" y="522.393852" style="fill: #0f8b8d; stroke: #0f8b8d"/>
     <use xlink:href="#m25c5538d37" x="610.334848" y="511.178246" style="fill: #0f8b8d; stroke: #0f8b8d"/>
     <use xlink:href="#m25c5538d37" x="662.206061" y="501.288496" style="fill: #0f8b8d; stroke: #0f8b8d"/>
     <use xlink:href="#m25c5538d37" x="714.077273" y="492.198619" style="fill: #0f8b8d; stroke: #0f8b8d"/>
    </g>
   </g>
   <g id="line2d_63">
    <path d="M 195.365152 641.122483 
L 247.236364 616.181392 
L 299.107576 588.544607 
L 350.978788 563.22775 
L 402.85 538.301848 
L 454.721212 513.67574 
L 506.592424 489.499023 
L 558.463636 465.7258 
L 610.334848 442.4173 
L 662.206061 418.674226 
L 714.077273 395.943727 
" clip-path="url(#p03befc568e)" style="fill: none; stroke: #c05621; stroke-width: 2.5; stroke-linecap: square"/>
    <g clip-path="url(#p03befc568e)">
     <use xlink:href="#me9920dacf5" x="195.365152" y="641.122483" style="fill: #c05621; stroke: #c05621"/>
     <use xlink:href="#me9920dacf5" x="247.236364" y="616.181392" style="fill: #c05621; stroke: #c05621"/>
     <use xlink:href="#me9920dacf5" x="299.107576" y="588.544607" style="fill: #c05621; stroke: #c05621"/>
     <use xlink:href="#me9920dacf5" x="350.978788" y="563.22775" style="fill: #c05621; stroke: #c05621"/>
     <use xlink:href="#me9920dacf5" x="402.85" y="538.301848" style="fill: #c05621; stroke: #c05621"/>
     <use xlink:href="#me9920dacf5" x="454.721212" y="513.67574" style="fill: #c05621; stroke: #c05621"/>
     <use xlink:href="#me9920dacf5" x="506.592424" y="489.499023" style="fill: #c05621; stroke: #c05621"/>
     <use xlink:href="#me9920dacf5" x="558.463636" y="465.7258" style="fill: #c05621; stroke: #c05621"/>
     <use xlink:href="#me9920dacf5" x="610.334848" y="442.4173" style="fill: #c05621; stroke: #c05621"/>
     <use xlink:href="#me9920dacf5" x="662.206061" y="418.674226" style="fill: #c05621; stroke: #c05621"/>
     <use xlink:href="#me9920dacf5" x="714.077273" y="395.943727" style="fill: #c05621; stroke: #c05621"/>
    </g>
   </g>
   <g id="patch_8">
    <path d="M 60.5 710.728 
L 60.5 380.954 
" style="fill: none; stroke: #000000; stroke-width: 0.8; stroke-linejoin: miter; stroke-linecap: square"/>
   </g>
   <g id="patch_9">
    <path d="M 745.2 710.728 
L 745.2 380.954 
" style="fill: none; stroke: #000000; stroke-width: 0.8; stroke-linejoin: miter; stroke-linecap: square"/>
   </g>
   <g id="patch_10">
    <path d="M 60.5 710.728 
L 745.2 710.728 
" style="fill: none; stroke: #000000; stroke-width: 0.8; stroke-linejoin: miter; stroke-linecap: square"/>
   </g>
   <g id="patch_11">
    <path d="M 60.5 380.954 
L 745.2 380.954 
" style="fill: none; stroke: #000000; stroke-width: 0.8; stroke-linejoin: miter; stroke-linecap: square"/>
   </g>
   <g id="legend_2">
    <g id="line2d_64">
     <path d="M 69.5 394.052438 
L 79.5 394.052438 
L 89.5 394.052438 
" style="fill: none; stroke: #1f4e79; stroke-width: 2.5; stroke-linecap: square"/>
     <g>
      <use xlink:href="#mbbd1da2f14" x="79.5" y="394.052438" style="fill: #1f4e79; stroke: #1f4e79"/>
     </g>
    </g>
    <g id="text_29">
     <!-- Exact full runs -->
     <g transform="translate(97.5 397.552438) scale(0.1 -0.1)">
      <use xlink:href="#DejaVuSans-45"/>
      <use xlink:href="#DejaVuSans-78" transform="translate(63.183594 0)"/>
      <use xlink:href="#DejaVuSans-61" transform="translate(122.363281 0)"/>
      <use xlink:href="#DejaVuSans-63" transform="translate(183.642578 0)"/>
      <use xlink:href="#DejaVuSans-74" transform="translate(238.623047 0)"/>
      <use xlink:href="#DejaVuSans-20" transform="translate(277.832031 0)"/>
      <use xlink:href="#DejaVuSans-66" transform="translate(309.619141 0)"/>
      <use xlink:href="#DejaVuSans-75" transform="translate(344.824219 0)"/>
      <use xlink:href="#DejaVuSans-6c" transform="translate(408.203125 0)"/>
      <use xlink:href="#DejaVuSans-6c" transform="translate(435.986328 0)"/>
      <use xlink:href="#DejaVuSans-20" transform="translate(463.769531 0)"/>
      <use xlink:href="#DejaVuSans-72" transform="translate(495.556641 0)"/>
      <use xlink:href="#DejaVuSans-75" transform="translate(536.669922 0)"/>
      <use xlink:href="#DejaVuSans-6e" transform="translate(600.048828 0)"/>
      <use xlink:href="#DejaVuSans-73" transform="translate(663.427734 0)"/>
     </g>
    </g>
    <g id="line2d_65">
     <path d="M 69.5 408.730563 
L 79.5 408.730563 
L 89.5 408.730563 
" style="fill: none; stroke: #0f8b8d; stroke-width: 2.5; stroke-linecap: square"/>
     <g>
      <use xlink:href="#m25c5538d37" x="79.5" y="408.730563" style="fill: #0f8b8d; stroke: #0f8b8d"/>
     </g>
    </g>
    <g id="text_30">
     <!-- Even windows -->
     <g transform="translate(97.5 412.230563) scale(0.1 -0.1)">
      <use xlink:href="#DejaVuSans-45"/>
      <use xlink:href="#DejaVuSans-76" transform="translate(63.183594 0)"/>
      <use xlink:href="#DejaVuSans-65" transform="translate(122.363281 0)"/>
      <use xlink:href="#DejaVuSans-6e" transform="translate(183.886719 0)"/>
      <use xlink:href="#DejaVuSans-20" transform="translate(247.265625 0)"/>
      <use xlink:href="#DejaVuSans-77" transform="translate(279.052734 0)"/>
      <use xlink:href="#DejaVuSans-69" transform="translate(360.839844 0)"/>
      <use xlink:href="#DejaVuSans-6e" transform="translate(388.623047 0)"/>
      <use xlink:href="#DejaVuSans-64" transform="translate(452.001953 0)"/>
      <use xlink:href="#DejaVuSans-6f" transform="translate(515.478516 0)"/>
      <use xlink:href="#DejaVuSans-77" transform="translate(576.660156 0)"/>
      <use xlink:href="#DejaVuSans-73" transform="translate(658.447266 0)"/>
     </g>
    </g>
    <g id="line2d_66">
     <path d="M 69.5 423.408688 
L 79.5 423.408688 
L 89.5 423.408688 
" style="fill: none; stroke: #c05621; stroke-width: 2.5; stroke-linecap: square"/>
     <g>
      <use xlink:href="#me9920dacf5" x="79.5" y="423.408688" style="fill: #c05621; stroke: #c05621"/>
     </g>
    </g>
    <g id="text_31">
     <!-- Seeded windows -->
     <g transform="translate(97.5 426.908688) scale(0.1 -0.1)">
      <use xlink:href="#DejaVuSans-53"/>
      <use xlink:href="#DejaVuSans-65" transform="translate(63.476562 0)"/>
      <use xlink:href="#DejaVuSans-65" transform="translate(125 0)"/>
      <use xlink:href="#DejaVuSans-64" transform="translate(186.523438 0)"/>
      <use xlink:href="#DejaVuSans-65" transform="translate(250 0)"/>
      <use xlink:href="#DejaVuSans-64" transform="translate(311.523438 0)"/>
      <use xlink:href="#DejaVuSans-20" transform="translate(375 0)"/>
      <use xlink:href="#DejaVuSans-77" transform="translate(406.787109 0)"/>
      <use xlink:href="#DejaVuSans-69" transform="translate(488.574219 0)"/>
      <use xlink:href="#DejaVuSans-6e" transform="translate(516.357422 0)"/>
      <use xlink:href="#DejaVuSans-64" transform="translate(579.736328 0)"/>
      <use xlink:href="#DejaVuSans-6f" transform="translate(643.212891 0)"/>
      <use xlink:href="#DejaVuSans-77" transform="translate(704.394531 0)"/>
      <use xlink:href="#DejaVuSans-73" transform="translate(786.181641 0)"/>
     </g>
    </g>
   </g>
  </g>
 </g>
 <defs>
  <clipPath id="p96e03f0e68">
   <rect x="60.5" y="36.88" width="684.7" height="329.774"/>
  </clipPath>
  <clipPath id="p03befc568e">
   <rect x="60.5" y="380.954" width="684.7" height="329.774"/>
  </clipPath>
 </defs>
</svg>
