<?xml version="1.0" encoding="utf-8" standalone="no"?>
<!DOCTYPE svg PUBLIC "-//W3C//DTD SVG 1.1//EN"
  "http://www.w3.org/Graphics/SVG/1.1/DTD/svg11.dtd">
<svg xmlns:xlink="http://www.w3.org/1999/xlink" width="792pt" height="475.2pt" viewBox="0 0 792 475.2" xmlns="http://www.w3.org/2000/svg" version="1.1">
 <metadata>
  <rdf:RDF xmlns:dc="http://purl.org/dc/elements/1.1/" xmlns:cc="http://creativecommons.org/ns#" xmlns:rdf="http://www.w3.org/1999/02/22-rdf-syntax-ns#">
   <cc:Work>
    <dc:type rdf:resource="http://purl.org/dc/dcmitype/StillImage"/>
    <dc:date>2026-04-03T00:54:57.307500</dc:date>
    <dc:format>image/svg+xml</dc:format>
    <dc:creator>
     <cc:Agent>
      <dc:title>Matplotlib v3.10.8, https://matplotlib.org/</dc:title>
     </cc:Agent>
    </dc:creator>
   </cc:Work>
  </rdf:RDF>
 </metadata>
 <defs>
  <style type="text/css">*{stroke-linejoin: round; stroke-linecap: butt}</style>
 </defs>
 <g id="figure_1">
  <g id="patch_1">
   <path d="M 0 475.2 
L 792 475.2 
L 792 0 
L 0 0 
z
" style="fill: #ffffff"/>
  </g>
  <g id="axes_1">
   <g id="patch_2">
    <path d="M 59.24 433.24 
L 781.2 433.24 
L 781.2 34.88 
L 59.24 34.88 
z
" style="fill: #ffffff"/>
   </g>
   <g id="matplotlib.axis_1">
    <g id="xtick_1">
     <g id="line2d_1">
      <path d="M 84.598099 433.24 
L 84.598099 34.88 
" clip-path="url(#pfa467daf09)" style="fill: none; stroke: #b0b0b0; stroke-opacity: 0.25; stroke-width: 0.8; stroke-linecap: square"/>
     </g>
     <g id="line2d_2">
      <defs>
       <path id="m0b00cd28c1" d="M 0 0 
L 0 3.5 
" style="stroke: #000000; stroke-width: 0.8"/>
      </defs>
      <g>
       <use xlink:href="#m0b00cd28c1" x="84.598099" y="433.24" style="stroke: #000000; stroke-width: 0.8"/>
      </g>
     </g>
     <g id="text_1">
      <!-- 0 -->
      <g transform="translate(81.416849 447.838437) scale(0.1 -0.1)">
       <defs>
        <path id="DejaVuSans-30" d="M 2034 4250 
Q 1547 4250 1301 3770 
Q 1056 3291 1056 2328 
Q 1056 1369 1301 889 
Q 1547 409 2034 409 
Q 2525 409 2770 889 
Q 3016 1369 3016 2328 
Q 3016 3291 2770 3770 
Q 2525 4250 2034 4250 
z
M 2034 4750 
Q 2819 4750 3233 4129 
Q 3647 3509 3647 2328 
Q 3647 1150 3233 529 
Q 2819 -91 2034 -91 
Q 1250 -91 836 529 
Q 422 1150 422 2328 
Q 422 3509 836 4129 
Q 1250 4750 2034 4750 
z
" transform="scale(0.015625)"/>
       </defs>
       <use xlink:href="#DejaVuSans-30"/>
      </g>
     </g>
    </g>
    <g id="xtick_2">
     <g id="line2d_3">
      <path d="M 233.763388 433.24 
L 233.763388 34.88 
" clip-path="url(#pfa467daf09)" style="fill: none; stroke: #b0b0b0; stroke-opacity: 0.25; stroke-width: 0.8; stroke-linecap: square"/>
     </g>
     <g id="line2d_4">
      <g>
       <use xlink:href="#m0b00cd28c1" x="233.763388" y="433.24" style="stroke: #000000; stroke-width: 0.8"/>
      </g>
     </g>
     <g id="text_2">
      <!-- 20 -->
      <g transform="translate(227.400888 447.838437) scale(0.1 -0.1)">
       <defs>
        <path id="DejaVuSans-32" d="M 1228 531 
L 3431 531 
L 3431 0 
L 469 0 
L 469 531 
Q 828 903 1448 1529 
Q 2069 2156 2228 2338 
Q 2531 2678 2651 2914 
Q 2772 3150 2772 3378 
Q 2772 3750 2511 3984 
Q 2250 4219 1831 4219 
Q 1534 4219 1204 4116 
Q 875 4013 500 3803 
L 500 4441 
Q 881 4594 1212 4672 
Q 1544 4750 1819 4750 
Q 2544 4750 2975 4387 
Q 3406 4025 3406 3419 
Q 3406 3131 3298 2873 
Q 3191 2616 2906 2266 
Q 2828 2175 2409 1742 
Q 1991 1309 1228 531 
z
" transform="scale(0.015625)"/>
       </defs>
       <use xlink:href="#DejaVuSans-32"/>
       <use xlink:href="#DejaVuSans-30" transform="translate(63.623047 0)"/>
      </g>
     </g>
    </g>
    <g id="xtick_3">
     <g id="line2d_5">
      <path d="M 382.928678 433.24 
L 382.928678 34.88 
" clip-path="url(#pfa467daf09)" style="fill: none; stroke: #b0b0b0; stroke-opacity: 0.25; stroke-width: 0.8; stroke-linecap: square"/>
     </g>
     <g id="line2d_6">
      <g>
       <use xlink:href="#m0b00cd28c1" x="382.928678" y="433.24" style="stroke: #000000; stroke-width: 0.8"/>
      </g>
     </g>
     <g id="text_3">
      <!-- 40 -->
      <g transform="translate(376.566178 447.838437) scale(0.1 -0.1)">
       <defs>
        <path id="DejaVuSans-34" d="M 2419 4116 
L 825 1625 
L 2419 1625 
L 2419 4116 
z
M 2253 4666 
L 3047 4666 
L 3047 1625 
L 3713 1625 
L 3713 1100 
L 3047 1100 
L 3047 0 
L 2419 0 
L 2419 1100 
L 313 1100 
L 313 1709 
L 2253 4666 
z
" transform="scale(0.015625)"/>
       </defs>
       <use xlink:href="#DejaVuSans-34"/>
       <use xlink:href="#DejaVuSans-30" transform="translate(63.623047 0)"/>
      </g>
     </g>
    </g>
    <g id="xtick_4">
     <g id="line2d_7">
      <path d="M 532.093967 433.24 
L 532.093967 34.88 
" clip-path="url(#pfa467daf09)" style="fill: none; stroke: #b0b0b0; stroke-opacity: 0.25; stroke-width: 0.8; stroke-linecap: square"/>
     </g>
     <g id="line2d_8">
      <g>
       <use xlink:href="#m0b00cd28c1" x="532.093967" y="433.24" style="stroke: #000000; stroke-width: 0.8"/>
      </g>
     </g>
     <g id="text_4">
      <!-- 60 -->
      <g transform="translate(525.731467 447.838437) scale(0.1 -0.1)">
       <defs>
        <path id="DejaVuSans-36" d="M 2113 2584 
Q 1688 2584 1439 2293 
Q 1191 2003 1191 1497 
Q 1191 994 1439 701 
Q 1688 409 2113 409 
Q 2538 409 2786 701 
Q 3034 994 3034 1497 
Q 3034 2003 2786 2293 
Q 2538 2584 2113 2584 
z
M 3366 4563 
L 3366 3988 
Q 3128 4100 2886 4159 
Q 2644 4219 2406 4219 
Q 1781 4219 1451 3797 
Q 1122 3375 1075 2522 
Q 1259 2794 1537 2939 
Q 1816 3084 2150 3084 
Q 2853 3084 3261 2657 
Q 3669 2231 3669 1497 
Q 3669 778 3244 343 
Q 2819 -91 2113 -91 
Q 1303 -91 875 529 
Q 447 1150 447 2328 
Q 447 3434 972 4092 
Q 1497 4750 2381 4750 
Q 2619 4750 2861 4703 
Q 3103 4656 3366 4563 
z
" transform="scale(0.015625)"/>
       </defs>
       <use xlink:href="#DejaVuSans-36"/>
       <use xlink:href="#DejaVuSans-30" transform="translate(63.623047 0)"/>
      </g>
     </g>
    </g>
    <g id="xtick_5">
     <g id="line2d_9">
      <path d="M 681.259256 433.24 
L 681.259256 34.88 
" clip-path="url(#pfa467daf09)" style="fill: none; stroke: #b0b0b0; stroke-opacity: 0.25; stroke-width: 0.8; stroke-linecap: square"/>
     </g>
     <g id="line2d_10">
      <g>
       <use xlink:href="#m0b00cd28c1" x="681.259256" y="433.24" style="stroke: #000000; stroke-width: 0.8"/>
      </g>
     </g>
     <g id="text_5">
      <!-- 80 -->
      <g transform="translate(674.896756 447.838437) scale(0.1 -0.1)">
       <defs>
        <path id="DejaVuSans-38" d="M 2034 2216 
Q 1584 2216 1326 1975 
Q 1069 1734 1069 1313 
Q 1069 891 1326 650 
Q 1584 409 2034 409 
Q 2484 409 2743 651 
Q 3003 894 3003 1313 
Q 3003 1734 2745 1975 
Q 2488 2216 2034 2216 
z
M 1403 2484 
Q 997 2584 770 2862 
Q 544 3141 544 3541 
Q 544 4100 942 4425 
Q 1341 4750 2034 4750 
Q 2731 4750 3128 4425 
Q 3525 4100 3525 3541 
Q 3525 3141 3298 2862 
Q 3072 2584 2669 2484 
Q 3125 2378 3379 2068 
Q 3634 1759 3634 1313 
Q 3634 634 3220 271 
Q 2806 -91 2034 -91 
Q 1263 -91 848 271 
Q 434 634 434 1313 
Q 434 1759 690 2068 
Q 947 2378 1403 2484 
z
M 1172 3481 
Q 1172 3119 1398 2916 
Q 1625 2713 2034 2713 
Q 2441 2713 2670 2916 
Q 2900 3119 2900 3481 
Q 2900 3844 2670 4047 
Q 2441 4250 2034 4250 
Q 1625 4250 1398 4047 
Q 1172 3844 1172 3481 
z
" transform="scale(0.015625)"/>
       </defs>
       <use xlink:href="#DejaVuSans-38"/>
       <use xlink:href="#DejaVuSans-30" transform="translate(63.623047 0)"/>
      </g>
     </g>
    </g>
    <g id="text_6">
     <!-- Offset inside gap [404851, 404941] -->
     <g transform="translate(330.885625 461.516562) scale(0.1 -0.1)">
      <defs>
       <path id="DejaVuSans-4f" d="M 2522 4238 
Q 1834 4238 1429 3725 
Q 1025 3213 1025 2328 
Q 1025 1447 1429 934 
Q 1834 422 2522 422 
Q 3209 422 3611 934 
Q 4013 1447 4013 2328 
Q 4013 3213 3611 3725 
Q 3209 4238 2522 4238 
z
M 2522 4750 
Q 3503 4750 4090 4092 
Q 4678 3434 4678 2328 
Q 4678 1225 4090 567 
Q 3503 -91 2522 -91 
Q 1538 -91 948 565 
Q 359 1222 359 2328 
Q 359 3434 948 4092 
Q 1538 4750 2522 4750 
z
" transform="scale(0.015625)"/>
       <path id="DejaVuSans-66" d="M 2375 4863 
L 2375 4384 
L 1825 4384 
Q 1516 4384 1395 4259 
Q 1275 4134 1275 3809 
L 1275 3500 
L 2222 3500 
L 2222 3053 
L 1275 3053 
L 1275 0 
L 697 0 
L 697 3053 
L 147 3053 
L 147 3500 
L 697 3500 
L 697 3744 
Q 697 4328 969 4595 
Q 1241 4863 1831 4863 
L 2375 4863 
z
" transform="scale(0.015625)"/>
       <path id="DejaVuSans-73" d="M 2834 3397 
L 2834 2853 
Q 2591 2978 2328 3040 
Q 2066 3103 1784 3103 
Q 1356 3103 1142 2972 
Q 928 2841 928 2578 
Q 928 2378 1081 2264 
Q 1234 2150 1697 2047 
L 1894 2003 
Q 2506 1872 2764 1633 
Q 3022 1394 3022 966 
Q 3022 478 2636 193 
Q 2250 -91 1575 -91 
Q 1294 -91 989 -36 
Q 684 19 347 128 
L 347 722 
Q 666 556 975 473 
Q 1284 391 1588 391 
Q 1994 391 2212 530 
Q 2431 669 2431 922 
Q 2431 1156 2273 1281 
Q 2116 1406 1581 1522 
L 1381 1569 
Q 847 1681 609 1914 
Q 372 2147 372 2553 
Q 372 3047 722 3315 
Q 1072 3584 1716 3584 
Q 2034 3584 2315 3537 
Q 2597 3491 2834 3397 
z
" transform="scale(0.015625)"/>
       <path id="DejaVuSans-65" d="M 3597 1894 
L 3597 1613 
L 953 1613 
Q 991 1019 1311 708 
Q 1631 397 2203 397 
Q 2534 397 2845 478 
Q 3156 559 3463 722 
L 3463 178 
Q 3153 47 2828 -22 
Q 2503 -91 2169 -91 
Q 1331 -91 842 396 
Q 353 884 353 1716 
Q 353 2575 817 3079 
Q 1281 3584 2069 3584 
Q 2775 3584 3186 3129 
Q 3597 2675 3597 1894 
z
M 3022 2063 
Q 3016 2534 2758 2815 
Q 2500 3097 2075 3097 
Q 1594 3097 1305 2825 
Q 1016 2553 972 2059 
L 3022 2063 
z
" transform="scale(0.015625)"/>
       <path id="DejaVuSans-74" d="M 1172 4494 
L 1172 3500 
L 2356 3500 
L 2356 3053 
L 1172 3053 
L 1172 1153 
Q 1172 725 1289 603 
Q 1406 481 1766 481 
L 2356 481 
L 2356 0 
L 1766 0 
Q 1100 0 847 248 
Q 594 497 594 1153 
L 594 3053 
L 172 3053 
L 172 3500 
L 594 3500 
L 594 4494 
L 1172 4494 
z
" transform="scale(0.015625)"/>
       <path id="DejaVuSans-20" transform="scale(0.015625)"/>
       <path id="DejaVuSans-69" d="M 603 3500 
L 1178 3500 
L 1178 0 
L 603 0 
L 603 3500 
z
M 603 4863 
L 1178 4863 
L 1178 4134 
L 603 4134 
L 603 4863 
z
" transform="scale(0.015625)"/>
       <path id="DejaVuSans-6e" d="M 3513 2113 
L 3513 0 
L 2938 0 
L 2938 2094 
Q 2938 2591 2744 2837 
Q 2550 3084 2163 3084 
Q 1697 3084 1428 2787 
Q 1159 2491 1159 1978 
L 1159 0 
L 581 0 
L 581 3500 
L 1159 3500 
L 1159 2956 
Q 1366 3272 1645 3428 
Q 1925 3584 2291 3584 
Q 2894 3584 3203 3211 
Q 3513 2838 3513 2113 
z
" transform="scale(0.015625)"/>
       <path id="DejaVuSans-64" d="M 2906 2969 
L 2906 4863 
L 3481 4863 
L 3481 0 
L 2906 0 
L 2906 525 
Q 2725 213 2448 61 
Q 2172 -91 1784 -91 
Q 1150 -91 751 415 
Q 353 922 353 1747 
Q 353 2572 751 3078 
Q 1150 3584 1784 3584 
Q 2172 3584 2448 3432 
Q 2725 3281 2906 2969 
z
M 947 1747 
Q 947 1113 1208 752 
Q 1469 391 1925 391 
Q 2381 391 2643 752 
Q 2906 1113 2906 1747 
Q 2906 2381 2643 2742 
Q 2381 3103 1925 3103 
Q 1469 3103 1208 2742 
Q 947 2381 947 1747 
z
" transform="scale(0.015625)"/>
       <path id="DejaVuSans-67" d="M 2906 1791 
Q 2906 2416 2648 2759 
Q 2391 3103 1925 3103 
Q 1463 3103 1205 2759 
Q 947 2416 947 1791 
Q 947 1169 1205 825 
Q 1463 481 1925 481 
Q 2391 481 2648 825 
Q 2906 1169 2906 1791 
z
M 3481 434 
Q 3481 -459 3084 -895 
Q 2688 -1331 1869 -1331 
Q 1566 -1331 1297 -1286 
Q 1028 -1241 775 -1147 
L 775 -588 
Q 1028 -725 1275 -790 
Q 1522 -856 1778 -856 
Q 2344 -856 2625 -561 
Q 2906 -266 2906 331 
L 2906 616 
Q 2728 306 2450 153 
Q 2172 0 1784 0 
Q 1141 0 747 490 
Q 353 981 353 1791 
Q 353 2603 747 3093 
Q 1141 3584 1784 3584 
Q 2172 3584 2450 3431 
Q 2728 3278 2906 2969 
L 2906 3500 
L 3481 3500 
L 3481 434 
z
" transform="scale(0.015625)"/>
       <path id="DejaVuSans-61" d="M 2194 1759 
Q 1497 1759 1228 1600 
Q 959 1441 959 1056 
Q 959 750 1161 570 
Q 1363 391 1709 391 
Q 2188 391 2477 730 
Q 2766 1069 2766 1631 
L 2766 1759 
L 2194 1759 
z
M 3341 1997 
L 3341 0 
L 2766 0 
L 2766 531 
Q 2569 213 2275 61 
Q 1981 -91 1556 -91 
Q 1019 -91 701 211 
Q 384 513 384 1019 
Q 384 1609 779 1909 
Q 1175 2209 1959 2209 
L 2766 2209 
L 2766 2266 
Q 2766 2663 2505 2880 
Q 2244 3097 1772 3097 
Q 1472 3097 1187 3025 
Q 903 2953 641 2809 
L 641 3341 
Q 956 3463 1253 3523 
Q 1550 3584 1831 3584 
Q 2591 3584 2966 3190 
Q 3341 2797 3341 1997 
z
" transform="scale(0.015625)"/>
       <path id="DejaVuSans-70" d="M 1159 525 
L 1159 -1331 
L 581 -1331 
L 581 3500 
L 1159 3500 
L 1159 2969 
Q 1341 3281 1617 3432 
Q 1894 3584 2278 3584 
Q 2916 3584 3314 3078 
Q 3713 2572 3713 1747 
Q 3713 922 3314 415 
Q 2916 -91 2278 -91 
Q 1894 -91 1617 61 
Q 1341 213 1159 525 
z
M 3116 1747 
Q 3116 2381 2855 2742 
Q 2594 3103 2138 3103 
Q 1681 3103 1420 2742 
Q 1159 2381 1159 1747 
Q 1159 1113 1420 752 
Q 1681 391 2138 391 
Q 2594 391 2855 752 
Q 3116 1113 3116 1747 
z
" transform="scale(0.015625)"/>
       <path id="DejaVuSans-5b" d="M 550 4863 
L 1875 4863 
L 1875 4416 
L 1125 4416 
L 1125 -397 
L 1875 -397 
L 1875 -844 
L 550 -844 
L 550 4863 
z
" transform="scale(0.015625)"/>
       <path id="DejaVuSans-35" d="M 691 4666 
L 3169 4666 
L 3169 4134 
L 1269 4134 
L 1269 2991 
Q 1406 3038 1543 3061 
Q 1681 3084 1819 3084 
Q 2600 3084 3056 2656 
Q 3513 2228 3513 1497 
Q 3513 744 3044 326 
Q 2575 -91 1722 -91 
Q 1428 -91 1123 -41 
Q 819 9 494 109 
L 494 744 
Q 775 591 1075 516 
Q 1375 441 1709 441 
Q 2250 441 2565 725 
Q 2881 1009 2881 1497 
Q 2881 1984 2565 2268 
Q 2250 2553 1709 2553 
Q 1456 2553 1204 2497 
Q 953 2441 691 2322 
L 691 4666 
z
" transform="scale(0.015625)"/>
       <path id="DejaVuSans-31" d="M 794 531 
L 1825 531 
L 1825 4091 
L 703 3866 
L 703 4441 
L 1819 4666 
L 2450 4666 
L 2450 531 
L 3481 531 
L 3481 0 
L 794 0 
L 794 531 
z
" transform="scale(0.015625)"/>
       <path id="DejaVuSans-2c" d="M 750 794 
L 1409 794 
L 1409 256 
L 897 -744 
L 494 -744 
L 750 256 
L 750 794 
z
" transform="scale(0.015625)"/>
       <path id="DejaVuSans-39" d="M 703 97 
L 703 672 
Q 941 559 1184 500 
Q 1428 441 1663 441 
Q 2288 441 2617 861 
Q 2947 1281 2994 2138 
Q 2813 1869 2534 1725 
Q 2256 1581 1919 1581 
Q 1219 1581 811 2004 
Q 403 2428 403 3163 
Q 403 3881 828 4315 
Q 1253 4750 1959 4750 
Q 2769 4750 3195 4129 
Q 3622 3509 3622 2328 
Q 3622 1225 3098 567 
Q 2575 -91 1691 -91 
Q 1453 -91 1209 -44 
Q 966 3 703 97 
z
M 1959 2075 
Q 2384 2075 2632 2365 
Q 2881 2656 2881 3163 
Q 2881 3666 2632 3958 
Q 2384 4250 1959 4250 
Q 1534 4250 1286 3958 
Q 1038 3666 1038 3163 
Q 1038 2656 1286 2365 
Q 1534 2075 1959 2075 
z
" transform="scale(0.015625)"/>
       <path id="DejaVuSans-5d" d="M 1947 4863 
L 1947 -844 
L 622 -844 
L 622 -397 
L 1369 -397 
L 1369 4416 
L 622 4416 
L 622 4863 
L 1947 4863 
z
" transform="scale(0.015625)"/>
      </defs>
      <use xlink:href="#DejaVuSans-4f"/>
      <use xlink:href="#DejaVuSans-66" transform="translate(78.710938 0)"/>
      <use xlink:href="#DejaVuSans-66" transform="translate(113.916016 0)"/>
      <use xlink:href="#DejaVuSans-73" transform="translate(149.121094 0)"/>
      <use xlink:href="#DejaVuSans-65" transform="translate(201.220703 0)"/>
      <use xlink:href="#DejaVuSans-74" transform="translate(262.744141 0)"/>
      <use xlink:href="#DejaVuSans-20" transform="translate(301.953125 0)"/>
      <use xlink:href="#DejaVuSans-69" transform="translate(333.740234 0)"/>
      <use xlink:href="#DejaVuSans-6e" transform="translate(361.523438 0)"/>
      <use xlink:href="#DejaVuSans-73" transform="translate(424.902344 0)"/>
      <use xlink:href="#DejaVuSans-69" transform="translate(477.001953 0)"/>
      <use xlink:href="#DejaVuSans-64" transform="translate(504.785156 0)"/>
      <use xlink:href="#DejaVuSans-65" transform="translate(568.261719 0)"/>
      <use xlink:href="#DejaVuSans-20" transform="translate(629.785156 0)"/>
      <use xlink:href="#DejaVuSans-67" transform="translate(661.572266 0)"/>
      <use xlink:href="#DejaVuSans-61" transform="translate(725.048828 0)"/>
      <use xlink:href="#DejaVuSans-70" transform="translate(786.328125 0)"/>
      <use xlink:href="#DejaVuSans-20" transform="translate(849.804688 0)"/>
      <use xlink:href="#DejaVuSans-5b" transform="translate(881.591797 0)"/>
      <use xlink:href="#DejaVuSans-34" transform="translate(920.605469 0)"/>
      <use xlink:href="#DejaVuSans-30" transform="translate(984.228516 0)"/>
      <use xlink:href="#DejaVuSans-34" transform="translate(1047.851562 0)"/>
      <use xlink:href="#DejaVuSans-38" transform="translate(1111.474609 0)"/>
      <use xlink:href="#DejaVuSans-35" transform="translate(1175.097656 0)"/>
      <use xlink:href="#DejaVuSans-31" transform="translate(1238.720703 0)"/>
      <use xlink:href="#DejaVuSans-2c" transform="translate(1302.34375 0)"/>
      <use xlink:href="#DejaVuSans-20" transform="translate(1334.130859 0)"/>
      <use xlink:href="#DejaVuSans-34" transform="translate(1365.917969 0)"/>
      <use xlink:href="#DejaVuSans-30" transform="translate(1429.541016 0)"/>
      <use xlink:href="#DejaVuSans-34" transform="translate(1493.164062 0)"/>
      <use xlink:href="#DejaVuSans-39" transform="translate(1556.787109 0)"/>
      <use xlink:href="#DejaVuSans-34" transform="translate(1620.410156 0)"/>
      <use xlink:href="#DejaVuSans-31" transform="translate(1684.033203 0)"/>
      <use xlink:href="#DejaVuSans-5d" transform="translate(1747.65625 0)"/>
     </g>
    </g>
   </g>
   <g id="matplotlib.axis_2">
    <g id="ytick_1">
     <g id="line2d_11">
      <path d="M 59.24 394.538191 
L 781.2 394.538191 
" clip-path="url(#pfa467daf09)" style="fill: none; stroke: #b0b0b0; stroke-opacity: 0.25; stroke-width: 0.8; stroke-linecap: square"/>
     </g>
     <g id="line2d_12">
      <defs>
       <path id="mafae0ee078" d="M 0 0 
L -3.5 0 
" style="stroke: #000000; stroke-width: 0.8"/>
      </defs>
      <g>
       <use xlink:href="#mafae0ee078" x="59.24" y="394.538191" style="stroke: #000000; stroke-width: 0.8"/>
      </g>
     </g>
     <g id="text_7">
      <!-- −500 -->
      <g transform="translate(24.772813 398.33741) scale(0.1 -0.1)">
       <defs>
        <path id="DejaVuSans-2212" d="M 678 2272 
L 4684 2272 
L 4684 1741 
L 678 1741 
L 678 2272 
z
" transform="scale(0.015625)"/>
       </defs>
       <use xlink:href="#DejaVuSans-2212"/>
       <use xlink:href="#DejaVuSans-35" transform="translate(83.789062 0)"/>
       <use xlink:href="#DejaVuSans-30" transform="translate(147.412109 0)"/>
       <use xlink:href="#DejaVuSans-30" transform="translate(211.035156 0)"/>
      </g>
     </g>
    </g>
    <g id="ytick_2">
     <g id="line2d_13">
      <path d="M 59.24 324.417307 
L 781.2 324.417307 
" clip-path="url(#pfa467daf09)" style="fill: none; stroke: #b0b0b0; stroke-opacity: 0.25; stroke-width: 0.8; stroke-linecap: square"/>
     </g>
     <g id="line2d_14">
      <g>
       <use xlink:href="#mafae0ee078" x="59.24" y="324.417307" style="stroke: #000000; stroke-width: 0.8"/>
      </g>
     </g>
     <g id="text_8">
      <!-- −400 -->
      <g transform="translate(24.772813 328.216525) scale(0.1 -0.1)">
       <use xlink:href="#DejaVuSans-2212"/>
       <use xlink:href="#DejaVuSans-34" transform="translate(83.789062 0)"/>
       <use xlink:href="#DejaVuSans-30" transform="translate(147.412109 0)"/>
       <use xlink:href="#DejaVuSans-30" transform="translate(211.035156 0)"/>
      </g>
     </g>
    </g>
    <g id="ytick_3">
     <g id="line2d_15">
      <path d="M 59.24 254.296422 
L 781.2 254.296422 
" clip-path="url(#pfa467daf09)" style="fill: none; stroke: #b0b0b0; stroke-opacity: 0.25; stroke-width: 0.8; stroke-linecap: square"/>
     </g>
     <g id="line2d_16">
      <g>
       <use xlink:href="#mafae0ee078" x="59.24" y="254.296422" style="stroke: #000000; stroke-width: 0.8"/>
      </g>
     </g>
     <g id="text_9">
      <!-- −300 -->
      <g transform="translate(24.772813 258.095641) scale(0.1 -0.1)">
       <defs>
        <path id="DejaVuSans-33" d="M 2597 2516 
Q 3050 2419 3304 2112 
Q 3559 1806 3559 1356 
Q 3559 666 3084 287 
Q 2609 -91 1734 -91 
Q 1441 -91 1130 -33 
Q 819 25 488 141 
L 488 750 
Q 750 597 1062 519 
Q 1375 441 1716 441 
Q 2309 441 2620 675 
Q 2931 909 2931 1356 
Q 2931 1769 2642 2001 
Q 2353 2234 1838 2234 
L 1294 2234 
L 1294 2753 
L 1863 2753 
Q 2328 2753 2575 2939 
Q 2822 3125 2822 3475 
Q 2822 3834 2567 4026 
Q 2313 4219 1838 4219 
Q 1578 4219 1281 4162 
Q 984 4106 628 3988 
L 628 4550 
Q 988 4650 1302 4700 
Q 1616 4750 1894 4750 
Q 2613 4750 3031 4423 
Q 3450 4097 3450 3541 
Q 3450 3153 3228 2886 
Q 3006 2619 2597 2516 
z
" transform="scale(0.015625)"/>
       </defs>
       <use xlink:href="#DejaVuSans-2212"/>
       <use xlink:href="#DejaVuSans-33" transform="translate(83.789062 0)"/>
       <use xlink:href="#DejaVuSans-30" transform="translate(147.412109 0)"/>
       <use xlink:href="#DejaVuSans-30" transform="translate(211.035156 0)"/>
      </g>
     </g>
    </g>
    <g id="ytick_4">
     <g id="line2d_17">
      <path d="M 59.24 184.175538 
L 781.2 184.175538 
" clip-path="url(#pfa467daf09)" style="fill: none; stroke: #b0b0b0; stroke-opacity: 0.25; stroke-width: 0.8; stroke-linecap: square"/>
     </g>
     <g id="line2d_18">
      <g>
       <use xlink:href="#mafae0ee078" x="59.24" y="184.175538" style="stroke: #000000; stroke-width: 0.8"/>
      </g>
     </g>
     <g id="text_10">
      <!-- −200 -->
      <g transform="translate(24.772813 187.974757) scale(0.1 -0.1)">
       <use xlink:href="#DejaVuSans-2212"/>
       <use xlink:href="#DejaVuSans-32" transform="translate(83.789062 0)"/>
       <use xlink:href="#DejaVuSans-30" transform="translate(147.412109 0)"/>
       <use xlink:href="#DejaVuSans-30" transform="translate(211.035156 0)"/>
      </g>
     </g>
    </g>
    <g id="ytick_5">
     <g id="line2d_19">
      <path d="M 59.24 114.054654 
L 781.2 114.054654 
" clip-path="url(#pfa467daf09)" style="fill: none; stroke: #b0b0b0; stroke-opacity: 0.25; stroke-width: 0.8; stroke-linecap: square"/>
     </g>
     <g id="line2d_20">
      <g>
       <use xlink:href="#mafae0ee078" x="59.24" y="114.054654" style="stroke: #000000; stroke-width: 0.8"/>
      </g>
     </g>
     <g id="text_11">
      <!-- −100 -->
      <g transform="translate(24.772813 117.853873) scale(0.1 -0.1)">
       <use xlink:href="#DejaVuSans-2212"/>
       <use xlink:href="#DejaVuSans-31" transform="translate(83.789062 0)"/>
       <use xlink:href="#DejaVuSans-30" transform="translate(147.412109 0)"/>
       <use xlink:href="#DejaVuSans-30" transform="translate(211.035156 0)"/>
      </g>
     </g>
    </g>
    <g id="ytick_6">
     <g id="line2d_21">
      <path d="M 59.24 43.933769 
L 781.2 43.933769 
" clip-path="url(#pfa467daf09)" style="fill: none; stroke: #b0b0b0; stroke-opacity: 0.25; stroke-width: 0.8; stroke-linecap: square"/>
     </g>
     <g id="line2d_22">
      <g>
       <use xlink:href="#mafae0ee078" x="59.24" y="43.933769" style="stroke: #000000; stroke-width: 0.8"/>
      </g>
     </g>
     <g id="text_12">
      <!-- 0 -->
      <g transform="translate(45.8775 47.732988) scale(0.1 -0.1)">
       <use xlink:href="#DejaVuSans-30"/>
      </g>
     </g>
    </g>
    <g id="text_13">
     <!-- log raw Z -->
     <g transform="translate(18.693125 257.494375) rotate(-90) scale(0.1 -0.1)">
      <defs>
       <path id="DejaVuSans-6c" d="M 603 4863 
L 1178 4863 
L 1178 0 
L 603 0 
L 603 4863 
z
" transform="scale(0.015625)"/>
       <path id="DejaVuSans-6f" d="M 1959 3097 
Q 1497 3097 1228 2736 
Q 959 2375 959 1747 
Q 959 1119 1226 758 
Q 1494 397 1959 397 
Q 2419 397 2687 759 
Q 2956 1122 2956 1747 
Q 2956 2369 2687 2733 
Q 2419 3097 1959 3097 
z
M 1959 3584 
Q 2709 3584 3137 3096 
Q 3566 2609 3566 1747 
Q 3566 888 3137 398 
Q 2709 -91 1959 -91 
Q 1206 -91 779 398 
Q 353 888 353 1747 
Q 353 2609 779 3096 
Q 1206 3584 1959 3584 
z
" transform="scale(0.015625)"/>
       <path id="DejaVuSans-72" d="M 2631 2963 
Q 2534 3019 2420 3045 
Q 2306 3072 2169 3072 
Q 1681 3072 1420 2755 
Q 1159 2438 1159 1844 
L 1159 0 
L 581 0 
L 581 3500 
L 1159 3500 
L 1159 2956 
Q 1341 3275 1631 3429 
Q 1922 3584 2338 3584 
Q 2397 3584 2469 3576 
Q 2541 3569 2628 3553 
L 2631 2963 
z
" transform="scale(0.015625)"/>
       <path id="DejaVuSans-77" d="M 269 3500 
L 844 3500 
L 1563 769 
L 2278 3500 
L 2956 3500 
L 3675 769 
L 4391 3500 
L 4966 3500 
L 4050 0 
L 3372 0 
L 2619 2869 
L 1863 0 
L 1184 0 
L 269 3500 
z
" transform="scale(0.015625)"/>
       <path id="DejaVuSans-5a" d="M 359 4666 
L 4025 4666 
L 4025 4184 
L 1075 531 
L 4097 531 
L 4097 0 
L 288 0 
L 288 481 
L 3238 4134 
L 359 4134 
L 359 4666 
z
" transform="scale(0.015625)"/>
      </defs>
      <use xlink:href="#DejaVuSans-6c"/>
      <use xlink:href="#DejaVuSans-6f" transform="translate(27.783203 0)"/>
      <use xlink:href="#DejaVuSans-67" transform="translate(88.964844 0)"/>
      <use xlink:href="#DejaVuSans-20" transform="translate(152.441406 0)"/>
      <use xlink:href="#DejaVuSans-72" transform="translate(184.228516 0)"/>
      <use xlink:href="#DejaVuSans-61" transform="translate(225.341797 0)"/>
      <use xlink:href="#DejaVuSans-77" transform="translate(286.621094 0)"/>
      <use xlink:href="#DejaVuSans-20" transform="translate(368.408203 0)"/>
      <use xlink:href="#DejaVuSans-5a" transform="translate(400.195312 0)"/>
     </g>
    </g>
   </g>
   <g id="line2d_23">
    <path d="M 92.056364 143.522286 
L 99.514628 52.987273 
L 106.972893 71.094284 
L 114.431157 107.308316 
L 121.889421 143.522362 
L 129.347686 52.98728 
L 136.80595 107.308353 
L 144.264215 107.308365 
L 151.722479 143.522438 
L 159.180744 52.987287 
L 166.639008 71.094326 
L 174.097273 52.98729 
L 181.555537 107.308425 
L 189.013802 107.308438 
L 196.472066 143.522553 
L 203.930331 52.987297 
L 211.388595 89.201416 
L 218.84686 71.094362 
L 226.305124 71.094368 
L 233.763388 71.094373 
L 241.221653 179.736812 
L 248.679917 52.987307 
L 256.138182 143.522705 
L 263.596446 107.308559 
L 271.054711 89.201485 
L 278.512975 71.094404 
L 285.97124 71.094409 
L 293.429504 52.987318 
L 300.887769 397.022219 
L 308.346033 52.987321 
L 315.804298 52.987323 
L 323.262562 62.04088 
L 330.720826 62.040883 
L 338.179091 71.094445 
L 345.637355 71.094451 
L 353.09562 62.040894 
L 360.553884 179.737227 
L 368.012149 89.201597 
L 375.470413 107.308741 
L 382.928678 71.094477 
L 390.386942 252.165897 
L 397.845207 52.987342 
L 405.303471 71.094492 
L 412.761736 71.094497 
L 420.22 89.201658 
L 427.678264 52.987349 
L 435.136529 179.737487 
L 442.594793 52.987352 
L 450.053058 116.362447 
L 457.511322 89.201701 
L 464.969587 71.094534 
L 472.427851 52.987359 
L 479.886116 107.30891 
L 487.34438 71.094549 
L 494.802645 71.094555 
L 502.260909 71.09456 
L 509.719174 89.201762 
L 517.177438 71.09457 
L 524.635702 252.166614 
L 532.093967 52.987373 
L 539.552231 80.148191 
L 547.010496 71.094591 
L 554.46876 71.094596 
L 561.927025 107.309044 
L 569.385289 143.523505 
L 576.843554 52.987384 
L 584.301818 71.094617 
L 591.760083 80.14824 
L 599.218347 179.738058 
L 606.676612 71.094632 
L 614.134876 179.73811 
L 621.59314 52.987394 
L 629.051405 116.362779 
L 636.509669 89.201909 
L 643.967934 71.094658 
L 651.426198 52.987401 
L 658.884463 415.132727 
L 666.342727 52.987404 
L 673.800992 71.094679 
L 681.259256 89.201961 
L 688.717521 89.20197 
L 696.175785 52.987411 
L 703.63405 71.0947 
L 711.092314 71.094705 
L 718.550579 143.523886 
L 726.008843 89.202013 
L 733.467107 71.094721 
L 740.925372 52.987422 
L 748.383636 252.167809 
" clip-path="url(#pfa467daf09)" style="fill: none; stroke: #c05621; stroke-width: 2.5; stroke-linecap: square"/>
   </g>
   <g id="line2d_24">
    <path d="M 92.056364 433.24 
L 92.056364 34.88 
" clip-path="url(#pfa467daf09)" style="fill: none; stroke-dasharray: 4.44,1.92; stroke-dashoffset: 0; stroke: #243b53; stroke-opacity: 0.5; stroke-width: 1.2"/>
   </g>
   <g id="line2d_25">
    <path d="M 748.383636 433.24 
L 748.383636 34.88 
" clip-path="url(#pfa467daf09)" style="fill: none; stroke-dasharray: 4.44,1.92; stroke-dashoffset: 0; stroke: #243b53; stroke-opacity: 0.5; stroke-width: 1.2"/>
   </g>
   <g id="patch_3">
    <path d="M 59.24 433.24 
L 59.24 34.88 
" style="fill: none; stroke: #000000; stroke-width: 0.8; stroke-linejoin: miter; stroke-linecap: square"/>
   </g>
   <g id="patch_4">
    <path d="M 781.2 433.24 
L 781.2 34.88 
" style="fill: none; stroke: #000000; stroke-width: 0.8; stroke-linejoin: miter; stroke-linecap: square"/>
   </g>
   <g id="patch_5">
    <path d="M 59.24 433.24 
L 781.2 433.24 
" style="fill: none; stroke: #000000; stroke-width: 0.8; stroke-linejoin: miter; stroke-linecap: square"/>
   </g>
   <g id="patch_6">
    <path d="M 59.24 34.88 
L 781.2 34.88 
" style="fill: none; stroke: #000000; stroke-width: 0.8; stroke-linejoin: miter; stroke-linecap: square"/>
   </g>
   <g id="PathCollection_1">
    <defs>
     <path id="md8cd17787d" d="M 0 4.472136 
C 1.186024 4.472136 2.323632 4.000923 3.162278 3.162278 
C 4.000923 2.323632 4.472136 1.186024 4.472136 0 
C 4.472136 -1.186024 4.000923 -2.323632 3.162278 -3.162278 
C 2.323632 -4.000923 1.186024 -4.472136 0 -4.472136 
C -1.186024 -4.472136 -2.323632 -4.000923 -3.162278 -3.162278 
C -4.000923 -2.323632 -4.472136 -1.186024 -4.472136 0 
C -4.472136 1.186024 -4.000923 2.323632 -3.162278 3.162278 
C -2.323632 4.000923 -1.186024 4.472136 0 4.472136 
z
" style="stroke: #1f4e79"/>
    </defs>
    <g clip-path="url(#pfa467daf09)">
     <use xlink:href="#md8cd17787d" x="99.514628" y="52.987273" style="fill: #1f4e79; stroke: #1f4e79"/>
    </g>
   </g>
   <g id="patch_7">
    <path d="M 117.892768 51.179284 
Q 109.697536 51.985508 102.614966 52.68227 
" style="fill: none; stroke: #1f4e79; stroke-linecap: round"/>
    <path d="M 106.791558 54.281044 
L 102.614966 52.68227 
L 106.39994 50.300261 
" style="fill: none; stroke: #1f4e79; stroke-linecap: round"/>
   </g>
   <g id="text_14">
    <!-- peak at n=404853 -->
    <g style="fill: #102a43" transform="translate(121.889421 41.705315) scale(0.1 -0.1)">
     <defs>
      <path id="DejaVuSans-6b" d="M 581 4863 
L 1159 4863 
L 1159 1991 
L 2875 3500 
L 3609 3500 
L 1753 1863 
L 3688 0 
L 2938 0 
L 1159 1709 
L 1159 0 
L 581 0 
L 581 4863 
z
" transform="scale(0.015625)"/>
      <path id="DejaVuSans-3d" d="M 678 2906 
L 4684 2906 
L 4684 2381 
L 678 2381 
L 678 2906 
z
M 678 1631 
L 4684 1631 
L 4684 1100 
L 678 1100 
L 678 1631 
z
" transform="scale(0.015625)"/>
     </defs>
     <use xlink:href="#DejaVuSans-70"/>
     <use xlink:href="#DejaVuSans-65" transform="translate(63.476562 0)"/>
     <use xlink:href="#DejaVuSans-61" transform="translate(125 0)"/>
     <use xlink:href="#DejaVuSans-6b" transform="translate(186.279297 0)"/>
     <use xlink:href="#DejaVuSans-20" transform="translate(244.189453 0)"/>
     <use xlink:href="#DejaVuSans-61" transform="translate(275.976562 0)"/>
     <use xlink:href="#DejaVuSans-74" transform="translate(337.255859 0)"/>
     <use xlink:href="#DejaVuSans-20" transform="translate(376.464844 0)"/>
     <use xlink:href="#DejaVuSans-6e" transform="translate(408.251953 0)"/>
     <use xlink:href="#DejaVuSans-3d" transform="translate(471.630859 0)"/>
     <use xlink:href="#DejaVuSans-34" transform="translate(555.419922 0)"/>
     <use xlink:href="#DejaVuSans-30" transform="translate(619.042969 0)"/>
     <use xlink:href="#DejaVuSans-34" transform="translate(682.666016 0)"/>
     <use xlink:href="#DejaVuSans-38" transform="translate(746.289062 0)"/>
     <use xlink:href="#DejaVuSans-35" transform="translate(809.912109 0)"/>
     <use xlink:href="#DejaVuSans-33" transform="translate(873.535156 0)"/>
    </g>
    <!-- edge distance=2, d(n)=4 -->
    <g style="fill: #102a43" transform="translate(121.889421 52.903128) scale(0.1 -0.1)">
     <defs>
      <path id="DejaVuSans-63" d="M 3122 3366 
L 3122 2828 
Q 2878 2963 2633 3030 
Q 2388 3097 2138 3097 
Q 1578 3097 1268 2742 
Q 959 2388 959 1747 
Q 959 1106 1268 751 
Q 1578 397 2138 397 
Q 2388 397 2633 464 
Q 2878 531 3122 666 
L 3122 134 
Q 2881 22 2623 -34 
Q 2366 -91 2075 -91 
Q 1284 -91 818 406 
Q 353 903 353 1747 
Q 353 2603 823 3093 
Q 1294 3584 2113 3584 
Q 2378 3584 2631 3529 
Q 2884 3475 3122 3366 
z
" transform="scale(0.015625)"/>
      <path id="DejaVuSans-28" d="M 1984 4856 
Q 1566 4138 1362 3434 
Q 1159 2731 1159 2009 
Q 1159 1288 1364 580 
Q 1569 -128 1984 -844 
L 1484 -844 
Q 1016 -109 783 600 
Q 550 1309 550 2009 
Q 550 2706 781 3412 
Q 1013 4119 1484 4856 
L 1984 4856 
z
" transform="scale(0.015625)"/>
      <path id="DejaVuSans-29" d="M 513 4856 
L 1013 4856 
Q 1481 4119 1714 3412 
Q 1947 2706 1947 2009 
Q 1947 1309 1714 600 
Q 1481 -109 1013 -844 
L 513 -844 
Q 928 -128 1133 580 
Q 1338 1288 1338 2009 
Q 1338 2731 1133 3434 
Q 928 4138 513 4856 
z
" transform="scale(0.015625)"/>
     </defs>
     <use xlink:href="#DejaVuSans-65"/>
     <use xlink:href="#DejaVuSans-64" transform="translate(61.523438 0)"/>
     <use xlink:href="#DejaVuSans-67" transform="translate(125 0)"/>
     <use xlink:href="#DejaVuSans-65" transform="translate(188.476562 0)"/>
     <use xlink:href="#DejaVuSans-20" transform="translate(250 0)"/>
     <use xlink:href="#DejaVuSans-64" transform="translate(281.787109 0)"/>
     <use xlink:href="#DejaVuSans-69" transform="translate(345.263672 0)"/>
     <use xlink:href="#DejaVuSans-73" transform="translate(373.046875 0)"/>
     <use xlink:href="#DejaVuSans-74" transform="translate(425.146484 0)"/>
     <use xlink:href="#DejaVuSans-61" transform="translate(464.355469 0)"/>
     <use xlink:href="#DejaVuSans-6e" transform="translate(525.634766 0)"/>
     <use xlink:href="#DejaVuSans-63" transform="translate(589.013672 0)"/>
     <use xlink:href="#DejaVuSans-65" transform="translate(643.994141 0)"/>
     <use xlink:href="#DejaVuSans-3d" transform="translate(705.517578 0)"/>
     <use xlink:href="#DejaVuSans-32" transform="translate(789.306641 0)"/>
     <use xlink:href="#DejaVuSans-2c" transform="translate(852.929688 0)"/>
     <use xlink:href="#DejaVuSans-20" transform="translate(884.716797 0)"/>
     <use xlink:href="#DejaVuSans-64" transform="translate(916.503906 0)"/>
     <use xlink:href="#DejaVuSans-28" transform="translate(979.980469 0)"/>
     <use xlink:href="#DejaVuSans-6e" transform="translate(1018.994141 0)"/>
     <use xlink:href="#DejaVuSans-29" transform="translate(1082.373047 0)"/>
     <use xlink:href="#DejaVuSans-3d" transform="translate(1121.386719 0)"/>
     <use xlink:href="#DejaVuSans-34" transform="translate(1205.175781 0)"/>
    </g>
   </g>
   <g id="text_15">
    <!-- Representative prime-gap slice: the raw-Z ridge rises near the boundary -->
    <g transform="translate(202.548437 20.88) scale(0.12 -0.12)">
     <defs>
      <path id="DejaVuSans-52" d="M 2841 2188 
Q 3044 2119 3236 1894 
Q 3428 1669 3622 1275 
L 4263 0 
L 3584 0 
L 2988 1197 
Q 2756 1666 2539 1819 
Q 2322 1972 1947 1972 
L 1259 1972 
L 1259 0 
L 628 0 
L 628 4666 
L 2053 4666 
Q 2853 4666 3247 4331 
Q 3641 3997 3641 3322 
Q 3641 2881 3436 2590 
Q 3231 2300 2841 2188 
z
M 1259 4147 
L 1259 2491 
L 2053 2491 
Q 2509 2491 2742 2702 
Q 2975 2913 2975 3322 
Q 2975 3731 2742 3939 
Q 2509 4147 2053 4147 
L 1259 4147 
z
" transform="scale(0.015625)"/>
      <path id="DejaVuSans-76" d="M 191 3500 
L 800 3500 
L 1894 563 
L 2988 3500 
L 3597 3500 
L 2284 0 
L 1503 0 
L 191 3500 
z
" transform="scale(0.015625)"/>
      <path id="DejaVuSans-6d" d="M 3328 2828 
Q 3544 3216 3844 3400 
Q 4144 3584 4550 3584 
Q 5097 3584 5394 3201 
Q 5691 2819 5691 2113 
L 5691 0 
L 5113 0 
L 5113 2094 
Q 5113 2597 4934 2840 
Q 4756 3084 4391 3084 
Q 3944 3084 3684 2787 
Q 3425 2491 3425 1978 
L 3425 0 
L 2847 0 
L 2847 2094 
Q 2847 2600 2669 2842 
Q 2491 3084 2119 3084 
Q 1678 3084 1418 2786 
Q 1159 2488 1159 1978 
L 1159 0 
L 581 0 
L 581 3500 
L 1159 3500 
L 1159 2956 
Q 1356 3278 1631 3431 
Q 1906 3584 2284 3584 
Q 2666 3584 2933 3390 
Q 3200 3197 3328 2828 
z
" transform="scale(0.015625)"/>
      <path id="DejaVuSans-2d" d="M 313 2009 
L 1997 2009 
L 1997 1497 
L 313 1497 
L 313 2009 
z
" transform="scale(0.015625)"/>
      <path id="DejaVuSans-3a" d="M 750 794 
L 1409 794 
L 1409 0 
L 750 0 
L 750 794 
z
M 750 3309 
L 1409 3309 
L 1409 2516 
L 750 2516 
L 750 3309 
z
" transform="scale(0.015625)"/>
      <path id="DejaVuSans-68" d="M 3513 2113 
L 3513 0 
L 2938 0 
L 2938 2094 
Q 2938 2591 2744 2837 
Q 2550 3084 2163 3084 
Q 1697 3084 1428 2787 
Q 1159 2491 1159 1978 
L 1159 0 
L 581 0 
L 581 4863 
L 1159 4863 
L 1159 2956 
Q 1366 3272 1645 3428 
Q 1925 3584 2291 3584 
Q 2894 3584 3203 3211 
Q 3513 2838 3513 2113 
z
" transform="scale(0.015625)"/>
      <path id="DejaVuSans-62" d="M 3116 1747 
Q 3116 2381 2855 2742 
Q 2594 3103 2138 3103 
Q 1681 3103 1420 2742 
Q 1159 2381 1159 1747 
Q 1159 1113 1420 752 
Q 1681 391 2138 391 
Q 2594 391 2855 752 
Q 3116 1113 3116 1747 
z
M 1159 2969 
Q 1341 3281 1617 3432 
Q 1894 3584 2278 3584 
Q 2916 3584 3314 3078 
Q 3713 2572 3713 1747 
Q 3713 922 3314 415 
Q 2916 -91 2278 -91 
Q 1894 -91 1617 61 
Q 1341 213 1159 525 
L 1159 0 
L 581 0 
L 581 4863 
L 1159 4863 
L 1159 2969 
z
" transform="scale(0.015625)"/>
      <path id="DejaVuSans-75" d="M 544 1381 
L 544 3500 
L 1119 3500 
L 1119 1403 
Q 1119 906 1312 657 
Q 1506 409 1894 409 
Q 2359 409 2629 706 
Q 2900 1003 2900 1516 
L 2900 3500 
L 3475 3500 
L 3475 0 
L 2900 0 
L 2900 538 
Q 2691 219 2414 64 
Q 2138 -91 1772 -91 
Q 1169 -91 856 284 
Q 544 659 544 1381 
z
M 1991 3584 
L 1991 3584 
z
" transform="scale(0.015625)"/>
      <path id="DejaVuSans-79" d="M 2059 -325 
Q 1816 -950 1584 -1140 
Q 1353 -1331 966 -1331 
L 506 -1331 
L 506 -850 
L 844 -850 
Q 1081 -850 1212 -737 
Q 1344 -625 1503 -206 
L 1606 56 
L 191 3500 
L 800 3500 
L 1894 763 
L 2988 3500 
L 3597 3500 
L 2059 -325 
z
" transform="scale(0.015625)"/>
     </defs>
     <use xlink:href="#DejaVuSans-52"/>
     <use xlink:href="#DejaVuSans-65" transform="translate(64.982422 0)"/>
     <use xlink:href="#DejaVuSans-70" transform="translate(126.505859 0)"/>
     <use xlink:href="#DejaVuSans-72" transform="translate(189.982422 0)"/>
     <use xlink:href="#DejaVuSans-65" transform="translate(228.845703 0)"/>
     <use xlink:href="#DejaVuSans-73" transform="translate(290.369141 0)"/>
     <use xlink:href="#DejaVuSans-65" transform="translate(342.46875 0)"/>
     <use xlink:href="#DejaVuSans-6e" transform="translate(403.992188 0)"/>
     <use xlink:href="#DejaVuSans-74" transform="translate(467.371094 0)"/>
     <use xlink:href="#DejaVuSans-61" transform="translate(506.580078 0)"/>
     <use xlink:href="#DejaVuSans-74" transform="translate(567.859375 0)"/>
     <use xlink:href="#DejaVuSans-69" transform="translate(607.068359 0)"/>
     <use xlink:href="#DejaVuSans-76" transform="translate(634.851562 0)"/>
     <use xlink:href="#DejaVuSans-65" transform="translate(694.03125 0)"/>
     <use xlink:href="#DejaVuSans-20" transform="translate(755.554688 0)"/>
     <use xlink:href="#DejaVuSans-70" transform="translate(787.341797 0)"/>
     <use xlink:href="#DejaVuSans-72" transform="translate(850.818359 0)"/>
     <use xlink:href="#DejaVuSans-69" transform="translate(891.931641 0)"/>
     <use xlink:href="#DejaVuSans-6d" transform="translate(919.714844 0)"/>
     <use xlink:href="#DejaVuSans-65" transform="translate(1017.126953 0)"/>
     <use xlink:href="#DejaVuSans-2d" transform="translate(1078.650391 0)"/>
     <use xlink:href="#DejaVuSans-67" transform="translate(1114.734375 0)"/>
     <use xlink:href="#DejaVuSans-61" transform="translate(1178.210938 0)"/>
     <use xlink:href="#DejaVuSans-70" transform="translate(1239.490234 0)"/>
     <use xlink:href="#DejaVuSans-20" transform="translate(1302.966797 0)"/>
     <use xlink:href="#DejaVuSans-73" transform="translate(1334.753906 0)"/>
     <use xlink:href="#DejaVuSans-6c" transform="translate(1386.853516 0)"/>
     <use xlink:href="#DejaVuSans-69" transform="translate(1414.636719 0)"/>
     <use xlink:href="#DejaVuSans-63" transform="translate(1442.419922 0)"/>
     <use xlink:href="#DejaVuSans-65" transform="translate(1497.400391 0)"/>
     <use xlink:href="#DejaVuSans-3a" transform="translate(1558.923828 0)"/>
     <use xlink:href="#DejaVuSans-20" transform="translate(1592.615234 0)"/>
     <use xlink:href="#DejaVuSans-74" transform="translate(1624.402344 0)"/>
     <use xlink:href="#DejaVuSans-68" transform="translate(1663.611328 0)"/>
     <use xlink:href="#DejaVuSans-65" transform="translate(1726.990234 0)"/>
     <use xlink:href="#DejaVuSans-20" transform="translate(1788.513672 0)"/>
     <use xlink:href="#DejaVuSans-72" transform="translate(1820.300781 0)"/>
     <use xlink:href="#DejaVuSans-61" transform="translate(1861.414062 0)"/>
     <use xlink:href="#DejaVuSans-77" transform="translate(1922.693359 0)"/>
     <use xlink:href="#DejaVuSans-2d" transform="translate(2004.480469 0)"/>
     <use xlink:href="#DejaVuSans-5a" transform="translate(2040.564453 0)"/>
     <use xlink:href="#DejaVuSans-20" transform="translate(2109.070312 0)"/>
     <use xlink:href="#DejaVuSans-72" transform="translate(2140.857422 0)"/>
     <use xlink:href="#DejaVuSans-69" transform="translate(2181.970703 0)"/>
     <use xlink:href="#DejaVuSans-64" transform="translate(2209.753906 0)"/>
     <use xlink:href="#DejaVuSans-67" transform="translate(2273.230469 0)"/>
     <use xlink:href="#DejaVuSans-65" transform="translate(2336.707031 0)"/>
     <use xlink:href="#DejaVuSans-20" transform="translate(2398.230469 0)"/>
     <use xlink:href="#DejaVuSans-72" transform="translate(2430.017578 0)"/>
     <use xlink:href="#DejaVuSans-69" transform="translate(2471.130859 0)"/>
     <use xlink:href="#DejaVuSans-73" transform="translate(2498.914062 0)"/>
     <use xlink:href="#DejaVuSans-65" transform="translate(2551.013672 0)"/>
     <use xlink:href="#DejaVuSans-73" transform="translate(2612.537109 0)"/>
     <use xlink:href="#DejaVuSans-20" transform="translate(2664.636719 0)"/>
     <use xlink:href="#DejaVuSans-6e" transform="translate(2696.423828 0)"/>
     <use xlink:href="#DejaVuSans-65" transform="translate(2759.802734 0)"/>
     <use xlink:href="#DejaVuSans-61" transform="translate(2821.326172 0)"/>
     <use xlink:href="#DejaVuSans-72" transform="translate(2882.605469 0)"/>
     <use xlink:href="#DejaVuSans-20" transform="translate(2923.71875 0)"/>
     <use xlink:href="#DejaVuSans-74" transform="translate(2955.505859 0)"/>
     <use xlink:href="#DejaVuSans-68" transform="translate(2994.714844 0)"/>
     <use xlink:href="#DejaVuSans-65" transform="translate(3058.09375 0)"/>
     <use xlink:href="#DejaVuSans-20" transform="translate(3119.617188 0)"/>
     <use xlink:href="#DejaVuSans-62" transform="translate(3151.404297 0)"/>
     <use xlink:href="#DejaVuSans-6f" transform="translate(3214.880859 0)"/>
     <use xlink:href="#DejaVuSans-75" transform="translate(3276.0625 0)"/>
     <use xlink:href="#DejaVuSans-6e" transform="translate(3339.441406 0)"/>
     <use xlink:href="#DejaVuSans-64" transform="translate(3402.820312 0)"/>
     <use xlink:href="#DejaVuSans-61" transform="translate(3466.296875 0)"/>
     <use xlink:href="#DejaVuSans-72" transform="translate(3527.576172 0)"/>
     <use xlink:href="#DejaVuSans-79" transform="translate(3568.689453 0)"/>
    </g>
   </g>
  </g>
 </g>
 <defs>
  <clipPath id="pfa467daf09">
   <rect x="59.24" y="34.88" width="721.96" height="398.36"/>
  </clipPath>
 </defs>
</svg>
